<svg width="600" height="500" viewBox="0 0 600 500" fill="none" xmlns="http://www.w3.org/2000/svg">
<g clip-path="url(#clip0_12_43)">
<path d="M353.795 107.594C353.487 111.306 353.364 115.003 353.445 118.624C353.756 132.365 358.114 148.763 366.959 155.432C377.982 163.744 391.83 155.114 403.404 160.613C421.331 169.13 436.234 203.713 456.6 184.697C471.617 170.676 477.063 137.086 473.88 112.913C468.29 70.4503 441.908 38.1935 412.396 36.5978C393.465 35.5743 374.805 45.6758 363.905 68.6648C358.655 79.7355 354.942 93.7663 353.795 107.594Z" fill="#F4F7FD"/>
<path d="M71.4116 462.396H523.392H524.121C537.936 416.472 543.428 365.287 538.924 315.569C536.603 289.94 531.395 263.714 519.231 244.907C511.521 232.987 501.452 224.772 490.967 218.88C465.246 204.427 436.093 203.364 409.909 215.924C392.697 224.18 375.366 238.317 357.602 233.107C349.862 230.837 342.839 224.994 336.319 218.504C301.466 183.81 274.785 127.025 233.55 113.955C206.882 105.503 178.461 118.006 156.263 141.156C134.065 164.307 117.455 197.213 104.099 231.919C77.1255 302.01 63.4133 382.873 71.4116 462.396Z" fill="#F4F7FD"/>
<mask id="mask0_12_43" style="mask-type:luminance" maskUnits="userSpaceOnUse" x="69" y="111" width="472" height="352">
<path d="M71.4116 462.396H523.392H524.121C537.936 416.472 543.428 365.287 538.924 315.569C536.603 289.94 531.395 263.714 519.231 244.907C511.521 232.987 501.452 224.772 490.967 218.88C465.246 204.427 436.093 203.364 409.909 215.924C392.697 224.18 375.366 238.317 357.602 233.107C349.862 230.837 342.839 224.994 336.319 218.504C301.466 183.81 274.785 127.025 233.55 113.955C206.882 105.503 178.461 118.006 156.263 141.156C134.065 164.307 117.455 197.213 104.099 231.919C77.1255 302.01 63.4133 382.873 71.4116 462.396Z" fill="white"/>
</mask>
<g mask="url(#mask0_12_43)">
<path opacity="0.1" d="M451.983 278.009C429.135 298.623 410.3 327.235 391.337 354.991C379.631 372.124 367.251 389.539 351.625 397.639C340.029 403.649 327.434 404.073 315.145 403.122C293.858 401.474 272.717 395.88 252.39 386.516C227.587 375.09 204.062 358.117 178.994 347.999C142.032 333.081 102.187 333.694 65.4487 349.746C64.3084 391.862 62.9997 434.076 61.8594 476.192C94.0105 479.801 126.279 474.863 158.467 472.041C272.932 462.004 387.494 478.694 502.005 472.898C516.936 472.142 532.236 472.003 547.071 469.313C547.6 465.706 547.347 461.506 547.416 457.806C547.494 453.632 547.552 449.457 547.589 445.281C547.662 436.931 547.654 428.578 547.563 420.228C547.382 403.527 546.873 386.834 546.037 370.176C544.649 342.523 542.361 314.966 539.177 287.631C538.305 280.147 537.324 272.616 535.477 265.492C534.298 260.944 532.791 254.912 529.293 253.266C526.181 251.801 522.223 252.255 518.985 251.791C513.968 251.073 508.908 251.049 503.884 251.633C485.432 253.778 467.636 263.886 451.983 278.009Z" fill="#3C94F8"/>
</g>
<path d="M369.518 286.289H160.551C158.287 286.289 156.451 283.612 156.451 280.309V78.514C156.451 75.2115 158.287 72.5345 160.551 72.5345H369.518C371.783 72.5345 373.619 75.2115 373.619 78.514V280.309C373.619 283.612 371.783 286.289 369.518 286.289Z" fill="#CCE6FF"/>
<mask id="mask1_12_43" style="mask-type:luminance" maskUnits="userSpaceOnUse" x="156" y="72" width="218" height="215">
<path d="M369.518 286.289H160.551C158.287 286.289 156.451 283.612 156.451 280.309V78.514C156.451 75.2115 158.287 72.5345 160.551 72.5345H369.518C371.783 72.5345 373.619 75.2115 373.619 78.514V280.309C373.619 283.612 371.783 286.289 369.518 286.289Z" fill="white"/>
</mask>
<g mask="url(#mask1_12_43)">
<path d="M383.461 60.3833H145.765V95.8675H383.461V60.3833Z" fill="#102A54"/>
</g>
<path d="M167.945 89.5237C169.586 89.5237 170.916 87.5842 170.916 85.1917C170.916 82.7992 169.586 80.8597 167.945 80.8597C166.305 80.8597 164.975 82.7992 164.975 85.1917C164.975 87.5842 166.305 89.5237 167.945 89.5237Z" fill="#3C94F8"/>
<path d="M178.735 89.5237C180.375 89.5237 181.705 87.5842 181.705 85.1917C181.705 82.7992 180.375 80.8597 178.735 80.8597C177.094 80.8597 175.764 82.7992 175.764 85.1917C175.764 87.5842 177.094 89.5237 178.735 89.5237Z" fill="white"/>
<path d="M189.524 89.5237C191.165 89.5237 192.494 87.5842 192.494 85.1917C192.494 82.7992 191.165 80.8597 189.524 80.8597C187.883 80.8597 186.553 82.7992 186.553 85.1917C186.553 87.5842 187.883 89.5237 189.524 89.5237Z" fill="white"/>
<path d="M366.708 284.244H159.892C156.896 284.244 154.459 280.689 154.459 276.321V77.6632C154.459 73.2942 156.896 69.74 159.892 69.74H366.708C369.703 69.74 372.141 73.2942 372.141 77.6632V276.32C372.141 280.689 369.703 284.244 366.708 284.244ZM159.892 70.49C157.18 70.49 154.973 73.708 154.973 77.6632V276.32C154.973 280.276 157.18 283.494 159.892 283.494H366.708C369.42 283.494 371.626 280.276 371.626 276.32V77.6632C371.626 73.708 369.42 70.49 366.708 70.49H159.892Z" fill="#102A54"/>
<path d="M222.457 265.598H168.215C167.049 265.598 166.103 264.218 166.103 262.517V118.076C166.103 116.374 167.049 114.995 168.215 114.995H222.457C223.624 114.995 224.57 116.374 224.57 118.076V262.517C224.57 264.218 223.624 265.598 222.457 265.598Z" fill="#F4F7FD"/>
<path d="M191.396 164.208H170.605C170.069 164.208 169.635 163.575 169.635 162.794V123.342C169.635 122.561 170.069 121.928 170.605 121.928H191.396C191.932 121.928 192.366 122.561 192.366 123.342V162.794C192.366 163.575 191.932 164.208 191.396 164.208Z" fill="#CCE6FF"/>
<path d="M198.174 127.224C199.176 127.224 199.989 126.039 199.989 124.576C199.989 123.114 199.176 121.928 198.174 121.928C197.171 121.928 196.358 123.114 196.358 124.576C196.358 126.039 197.171 127.224 198.174 127.224Z" fill="#CCE6FF"/>
<path d="M221.082 123.626H203.655C203.441 123.626 203.267 123.373 203.267 123.06C203.267 122.748 203.441 122.494 203.655 122.494H221.082C221.296 122.494 221.47 122.748 221.47 123.06C221.47 123.373 221.296 123.626 221.082 123.626Z" fill="#CCE6FF"/>
<path d="M221.082 126.658H203.655C203.441 126.658 203.267 126.405 203.267 126.092C203.267 125.78 203.441 125.527 203.655 125.527H221.082C221.296 125.527 221.47 125.78 221.47 126.092C221.47 126.405 221.296 126.658 221.082 126.658Z" fill="#CCE6FF"/>
<path d="M221.082 129.691H203.655C203.441 129.691 203.267 129.438 203.267 129.125C203.267 128.813 203.441 128.559 203.655 128.559H221.082C221.296 128.559 221.47 128.813 221.47 129.125C221.47 129.438 221.296 129.691 221.082 129.691Z" fill="#CCE6FF"/>
<path d="M199.958 136.092C200.144 134.655 199.496 133.27 198.511 132.999C197.526 132.728 196.576 133.672 196.39 135.109C196.204 136.546 196.852 137.931 197.837 138.202C198.822 138.474 199.772 137.529 199.958 136.092Z" fill="#CCE6FF"/>
<path d="M221.082 134.64H203.655C203.441 134.64 203.267 134.387 203.267 134.074C203.267 133.762 203.441 133.509 203.655 133.509H221.082C221.296 133.509 221.47 133.762 221.47 134.074C221.47 134.387 221.296 134.64 221.082 134.64Z" fill="#CCE6FF"/>
<path d="M221.082 137.673H203.655C203.441 137.673 203.267 137.419 203.267 137.107C203.267 136.794 203.441 136.541 203.655 136.541H221.082C221.296 136.541 221.47 136.794 221.47 137.107C221.47 137.419 221.296 137.673 221.082 137.673Z" fill="#CCE6FF"/>
<path d="M221.082 140.705H203.655C203.441 140.705 203.267 140.452 203.267 140.139C203.267 139.827 203.441 139.574 203.655 139.574H221.082C221.296 139.574 221.47 139.827 221.47 140.139C221.47 140.452 221.296 140.705 221.082 140.705Z" fill="#CCE6FF"/>
<path d="M199.958 147.106C200.144 145.67 199.496 144.285 198.511 144.013C197.525 143.742 196.576 144.687 196.39 146.124C196.204 147.56 196.851 148.945 197.837 149.217C198.822 149.488 199.772 148.543 199.958 147.106Z" fill="#CCE6FF"/>
<path d="M221.082 145.654H203.655C203.441 145.654 203.267 145.401 203.267 145.088C203.267 144.776 203.441 144.522 203.655 144.522H221.082C221.296 144.522 221.47 144.776 221.47 145.088C221.47 145.401 221.296 145.654 221.082 145.654Z" fill="#CCE6FF"/>
<path d="M221.082 148.687H203.655C203.441 148.687 203.267 148.433 203.267 148.121C203.267 147.808 203.441 147.555 203.655 147.555H221.082C221.296 147.555 221.47 147.808 221.47 148.121C221.47 148.433 221.296 148.687 221.082 148.687Z" fill="#CCE6FF"/>
<path d="M221.082 151.719H203.655C203.441 151.719 203.267 151.466 203.267 151.154C203.267 150.841 203.441 150.588 203.655 150.588H221.082C221.296 150.588 221.47 150.841 221.47 151.154C221.47 151.466 221.296 151.719 221.082 151.719Z" fill="#CCE6FF"/>
<path d="M199.104 159.902C199.968 159.159 200.255 157.536 199.746 156.276C199.237 155.017 198.124 154.598 197.26 155.341C196.396 156.084 196.109 157.707 196.618 158.967C197.128 160.226 198.241 160.645 199.104 159.902Z" fill="#CCE6FF"/>
<path d="M221.082 156.668H203.655C203.441 156.668 203.267 156.415 203.267 156.102C203.267 155.79 203.441 155.537 203.655 155.537H221.082C221.296 155.537 221.47 155.79 221.47 156.102C221.47 156.415 221.296 156.668 221.082 156.668Z" fill="#CCE6FF"/>
<path d="M221.082 159.701H203.655C203.441 159.701 203.267 159.447 203.267 159.135C203.267 158.822 203.441 158.569 203.655 158.569H221.082C221.296 158.569 221.47 158.822 221.47 159.135C221.47 159.447 221.296 159.701 221.082 159.701Z" fill="#CCE6FF"/>
<path d="M221.082 162.734H203.655C203.441 162.734 203.267 162.48 203.267 162.168C203.267 161.855 203.441 161.602 203.655 161.602H221.082C221.296 161.602 221.47 161.855 221.47 162.168C221.47 162.48 221.296 162.734 221.082 162.734Z" fill="#CCE6FF"/>
<path d="M191.18 210.927H170.389C169.853 210.927 169.419 210.294 169.419 209.513V170.062C169.419 169.281 169.853 168.648 170.389 168.648H191.18C191.716 168.648 192.15 169.281 192.15 170.062V209.513C192.15 210.294 191.716 210.927 191.18 210.927Z" fill="#CCE6FF"/>
<path d="M197.957 173.943C198.96 173.943 199.773 172.758 199.773 171.295C199.773 169.833 198.96 168.648 197.957 168.648C196.955 168.648 196.142 169.833 196.142 171.295C196.142 172.758 196.955 173.943 197.957 173.943Z" fill="#CCE6FF"/>
<path d="M220.866 170.345H203.439C203.225 170.345 203.051 170.091 203.051 169.779C203.051 169.466 203.225 169.213 203.439 169.213H220.866C221.08 169.213 221.254 169.466 221.254 169.779C221.254 170.091 221.08 170.345 220.866 170.345Z" fill="#CCE6FF"/>
<path d="M220.866 173.377H203.439C203.225 173.377 203.051 173.124 203.051 172.812C203.051 172.499 203.225 172.246 203.439 172.246H220.866C221.08 172.246 221.254 172.499 221.254 172.812C221.254 173.124 221.08 173.377 220.866 173.377Z" fill="#CCE6FF"/>
<path d="M220.866 176.41H203.439C203.225 176.41 203.051 176.157 203.051 175.844C203.051 175.532 203.225 175.279 203.439 175.279H220.866C221.08 175.279 221.254 175.532 221.254 175.844C221.254 176.157 221.08 176.41 220.866 176.41Z" fill="#CCE6FF"/>
<path d="M199.723 182.911C199.952 181.487 199.347 180.062 198.371 179.727C197.394 179.393 196.417 180.276 196.188 181.7C195.959 183.123 196.564 184.548 197.54 184.883C198.516 185.217 199.494 184.334 199.723 182.911Z" fill="#CCE6FF"/>
<path d="M220.866 181.359H203.439C203.225 181.359 203.051 181.106 203.051 180.793C203.051 180.481 203.225 180.227 203.439 180.227H220.866C221.08 180.227 221.254 180.481 221.254 180.793C221.254 181.106 221.08 181.359 220.866 181.359Z" fill="#CCE6FF"/>
<path d="M220.866 184.391H203.439C203.225 184.391 203.051 184.138 203.051 183.826C203.051 183.513 203.225 183.26 203.439 183.26H220.866C221.08 183.26 221.254 183.513 221.254 183.826C221.254 184.138 221.08 184.391 220.866 184.391Z" fill="#CCE6FF"/>
<path d="M220.866 187.424H203.439C203.225 187.424 203.051 187.171 203.051 186.858C203.051 186.546 203.225 186.293 203.439 186.293H220.866C221.08 186.293 221.254 186.546 221.254 186.858C221.254 187.171 221.08 187.424 220.866 187.424Z" fill="#CCE6FF"/>
<path d="M199.723 193.925C199.952 192.501 199.347 191.076 198.371 190.742C197.394 190.407 196.417 191.29 196.188 192.714C195.959 194.137 196.564 195.562 197.54 195.897C198.516 196.231 199.494 195.348 199.723 193.925Z" fill="#CCE6FF"/>
<path d="M220.866 192.373H203.439C203.225 192.373 203.051 192.12 203.051 191.807C203.051 191.495 203.225 191.241 203.439 191.241H220.866C221.08 191.241 221.254 191.495 221.254 191.807C221.254 192.12 221.08 192.373 220.866 192.373Z" fill="#CCE6FF"/>
<path d="M220.866 195.406H203.439C203.225 195.406 203.051 195.152 203.051 194.84C203.051 194.527 203.225 194.274 203.439 194.274H220.866C221.08 194.274 221.254 194.527 221.254 194.84C221.254 195.152 221.08 195.406 220.866 195.406Z" fill="#CCE6FF"/>
<path d="M220.866 198.438H203.439C203.225 198.438 203.051 198.185 203.051 197.873C203.051 197.56 203.225 197.307 203.439 197.307H220.866C221.08 197.307 221.254 197.56 221.254 197.873C221.254 198.185 221.08 198.438 220.866 198.438Z" fill="#CCE6FF"/>
<path d="M199.239 206.211C199.948 205.177 199.948 203.5 199.239 202.466C198.53 201.432 197.381 201.432 196.671 202.466C195.962 203.5 195.962 205.177 196.672 206.211C197.381 207.245 198.53 207.245 199.239 206.211Z" fill="#CCE6FF"/>
<path d="M220.866 203.387H203.439C203.225 203.387 203.051 203.134 203.051 202.821C203.051 202.509 203.225 202.256 203.439 202.256H220.866C221.08 202.256 221.254 202.509 221.254 202.821C221.254 203.134 221.08 203.387 220.866 203.387Z" fill="#CCE6FF"/>
<path d="M220.866 206.42H203.439C203.225 206.42 203.051 206.167 203.051 205.854C203.051 205.542 203.225 205.288 203.439 205.288H220.866C221.08 205.288 221.254 205.542 221.254 205.854C221.254 206.167 221.08 206.42 220.866 206.42Z" fill="#CCE6FF"/>
<path d="M220.866 209.452H203.439C203.225 209.452 203.051 209.199 203.051 208.887C203.051 208.574 203.225 208.321 203.439 208.321H220.866C221.08 208.321 221.254 208.574 221.254 208.887C221.254 209.199 221.08 209.452 220.866 209.452Z" fill="#CCE6FF"/>
<path d="M190.964 257.646H170.172C169.637 257.646 169.203 257.013 169.203 256.232V216.781C169.203 216 169.637 215.367 170.172 215.367H190.964C191.5 215.367 191.934 216 191.934 216.781V256.232C191.934 257.013 191.499 257.646 190.964 257.646Z" fill="#CCE6FF"/>
<path d="M197.741 220.662C198.744 220.662 199.557 219.477 199.557 218.014C199.557 216.552 198.744 215.367 197.741 215.367C196.739 215.367 195.926 216.552 195.926 218.014C195.926 219.477 196.739 220.662 197.741 220.662Z" fill="#CCE6FF"/>
<path d="M220.65 217.064H203.223C203.009 217.064 202.835 216.811 202.835 216.498C202.835 216.186 203.009 215.932 203.223 215.932H220.65C220.864 215.932 221.038 216.186 221.038 216.498C221.038 216.811 220.864 217.064 220.65 217.064Z" fill="#CCE6FF"/>
<path d="M220.65 220.096H203.223C203.009 220.096 202.835 219.843 202.835 219.531C202.835 219.218 203.009 218.965 203.223 218.965H220.65C220.864 218.965 221.038 219.218 221.038 219.531C221.038 219.843 220.864 220.096 220.65 220.096Z" fill="#CCE6FF"/>
<path d="M220.65 223.129H203.223C203.009 223.129 202.835 222.876 202.835 222.564C202.835 222.251 203.009 221.998 203.223 221.998H220.65C220.864 221.998 221.038 222.251 221.038 222.564C221.038 222.876 220.864 223.129 220.65 223.129Z" fill="#CCE6FF"/>
<path d="M199.507 229.629C199.736 228.206 199.131 226.78 198.155 226.446C197.179 226.112 196.201 226.994 195.972 228.418C195.743 229.842 196.348 231.267 197.324 231.601C198.301 231.936 199.278 231.053 199.507 229.629Z" fill="#CCE6FF"/>
<path d="M220.65 228.078H203.223C203.009 228.078 202.835 227.825 202.835 227.512C202.835 227.2 203.009 226.947 203.223 226.947H220.65C220.864 226.947 221.038 227.2 221.038 227.512C221.038 227.825 220.864 228.078 220.65 228.078Z" fill="#CCE6FF"/>
<path d="M220.65 231.111H203.223C203.009 231.111 202.835 230.857 202.835 230.545C202.835 230.232 203.009 229.979 203.223 229.979H220.65C220.864 229.979 221.038 230.232 221.038 230.545C221.038 230.857 220.864 231.111 220.65 231.111Z" fill="#CCE6FF"/>
<path d="M220.65 234.143H203.223C203.009 234.143 202.835 233.89 202.835 233.577C202.835 233.265 203.009 233.012 203.223 233.012H220.65C220.864 233.012 221.038 233.265 221.038 233.577C221.038 233.89 220.864 234.143 220.65 234.143Z" fill="#CCE6FF"/>
<path d="M199.507 240.643C199.736 239.219 199.131 237.794 198.155 237.46C197.179 237.125 196.201 238.008 195.972 239.432C195.743 240.856 196.348 242.281 197.324 242.615C198.301 242.949 199.278 242.067 199.507 240.643Z" fill="#CCE6FF"/>
<path d="M220.65 239.092H203.223C203.009 239.092 202.835 238.839 202.835 238.526C202.835 238.214 203.009 237.961 203.223 237.961H220.65C220.864 237.961 221.038 238.214 221.038 238.526C221.038 238.839 220.864 239.092 220.65 239.092Z" fill="#CCE6FF"/>
<path d="M220.65 242.125H203.223C203.009 242.125 202.835 241.872 202.835 241.559C202.835 241.247 203.009 240.993 203.223 240.993H220.65C220.864 240.993 221.038 241.247 221.038 241.559C221.038 241.871 220.864 242.125 220.65 242.125Z" fill="#CCE6FF"/>
<path d="M220.65 245.158H203.223C203.009 245.158 202.835 244.904 202.835 244.592C202.835 244.279 203.009 244.026 203.223 244.026H220.65C220.864 244.026 221.038 244.279 221.038 244.592C221.038 244.904 220.864 245.158 220.65 245.158Z" fill="#CCE6FF"/>
<path d="M199.023 252.929C199.732 251.895 199.732 250.219 199.023 249.185C198.314 248.151 197.164 248.151 196.455 249.185C195.746 250.219 195.746 251.895 196.455 252.929C197.164 253.963 198.314 253.963 199.023 252.929Z" fill="#CCE6FF"/>
<path d="M220.65 250.106H203.223C203.009 250.106 202.835 249.853 202.835 249.541C202.835 249.228 203.009 248.975 203.223 248.975H220.65C220.864 248.975 221.038 249.228 221.038 249.541C221.038 249.853 220.864 250.106 220.65 250.106Z" fill="#CCE6FF"/>
<path d="M220.65 253.139H203.223C203.009 253.139 202.835 252.886 202.835 252.573C202.835 252.261 203.009 252.008 203.223 252.008H220.65C220.864 252.008 221.038 252.261 221.038 252.573C221.038 252.886 220.864 253.139 220.65 253.139Z" fill="#CCE6FF"/>
<path d="M220.65 256.172H203.223C203.009 256.172 202.835 255.919 202.835 255.606C202.835 255.294 203.009 255.04 203.223 255.04H220.65C220.864 255.04 221.038 255.294 221.038 255.606C221.038 255.919 220.864 256.172 220.65 256.172Z" fill="#CCE6FF"/>
<path d="M187.857 143.855H173.801C173.354 143.855 172.992 143.327 172.992 142.675V126.605C172.992 125.953 173.354 125.425 173.801 125.425H187.857C188.304 125.425 188.666 125.953 188.666 126.605V142.675C188.666 143.327 188.304 143.855 187.857 143.855Z" fill="#F4F7FD"/>
<path d="M188.184 148.121H173.474C173.208 148.121 172.992 147.806 172.992 147.418V147.308C172.992 146.919 173.208 146.605 173.474 146.605H188.184C188.45 146.605 188.666 146.919 188.666 147.308V147.418C188.666 147.806 188.45 148.121 188.184 148.121Z" fill="#F4F7FD"/>
<path d="M188.184 151.346H173.474C173.208 151.346 172.992 151.031 172.992 150.643V150.533C172.992 150.144 173.208 149.83 173.474 149.83H188.184C188.45 149.83 188.666 150.144 188.666 150.533V150.643C188.666 151.031 188.45 151.346 188.184 151.346Z" fill="#F4F7FD"/>
<path d="M188.184 154.571H173.474C173.208 154.571 172.992 154.256 172.992 153.868V153.758C172.992 153.369 173.208 153.055 173.474 153.055H188.184C188.45 153.055 188.666 153.369 188.666 153.758V153.868C188.666 154.257 188.45 154.571 188.184 154.571Z" fill="#F4F7FD"/>
<path d="M188.184 157.796H173.474C173.208 157.796 172.992 157.482 172.992 157.093V156.983C172.992 156.595 173.208 156.28 173.474 156.28H188.184C188.45 156.28 188.666 156.595 188.666 156.983V157.093C188.666 157.482 188.45 157.796 188.184 157.796Z" fill="#F4F7FD"/>
<path d="M188.184 161.021H173.474C173.208 161.021 172.992 160.707 172.992 160.318V160.208C172.992 159.82 173.208 159.505 173.474 159.505H188.184C188.45 159.505 188.666 159.82 188.666 160.208V160.318C188.666 160.707 188.45 161.021 188.184 161.021Z" fill="#F4F7FD"/>
<path d="M187.857 190.419H173.801C173.354 190.419 172.992 189.891 172.992 189.239V173.169C172.992 172.517 173.354 171.989 173.801 171.989H187.857C188.304 171.989 188.666 172.517 188.666 173.169V189.239C188.666 189.891 188.304 190.419 187.857 190.419Z" fill="#F4F7FD"/>
<path d="M188.184 194.685H173.474C173.208 194.685 172.992 194.37 172.992 193.982V193.872C172.992 193.483 173.208 193.169 173.474 193.169H188.184C188.45 193.169 188.666 193.483 188.666 193.872V193.982C188.666 194.37 188.45 194.685 188.184 194.685Z" fill="#F4F7FD"/>
<path d="M188.184 197.91H173.474C173.208 197.91 172.992 197.596 172.992 197.207V197.097C172.992 196.709 173.208 196.394 173.474 196.394H188.184C188.45 196.394 188.666 196.709 188.666 197.097V197.207C188.666 197.596 188.45 197.91 188.184 197.91Z" fill="#F4F7FD"/>
<path d="M188.184 201.136H173.474C173.208 201.136 172.992 200.821 172.992 200.433V200.322C172.992 199.934 173.208 199.619 173.474 199.619H188.184C188.45 199.619 188.666 199.934 188.666 200.322V200.433C188.666 200.821 188.45 201.136 188.184 201.136Z" fill="#F4F7FD"/>
<path d="M188.184 204.361H173.474C173.208 204.361 172.992 204.046 172.992 203.658V203.547C172.992 203.159 173.208 202.844 173.474 202.844H188.184C188.45 202.844 188.666 203.159 188.666 203.547V203.658C188.666 204.046 188.45 204.361 188.184 204.361Z" fill="#F4F7FD"/>
<path d="M188.184 207.586H173.474C173.208 207.586 172.992 207.271 172.992 206.883V206.772C172.992 206.384 173.208 206.069 173.474 206.069H188.184C188.45 206.069 188.666 206.384 188.666 206.772V206.883C188.666 207.271 188.45 207.586 188.184 207.586Z" fill="#F4F7FD"/>
<path d="M187.857 236.983H173.801C173.354 236.983 172.992 236.455 172.992 235.803V219.733C172.992 219.081 173.354 218.553 173.801 218.553H187.857C188.304 218.553 188.666 219.081 188.666 219.733V235.803C188.666 236.455 188.304 236.983 187.857 236.983Z" fill="#F4F7FD"/>
<path d="M188.184 241.249H173.474C173.208 241.249 172.992 240.935 172.992 240.546V240.436C172.992 240.048 173.208 239.733 173.474 239.733H188.184C188.45 239.733 188.666 240.048 188.666 240.436V240.546C188.666 240.935 188.45 241.249 188.184 241.249Z" fill="#F4F7FD"/>
<path d="M188.184 244.475H173.474C173.208 244.475 172.992 244.16 172.992 243.772V243.661C172.992 243.273 173.208 242.958 173.474 242.958H188.184C188.45 242.958 188.666 243.273 188.666 243.661V243.772C188.666 244.16 188.45 244.475 188.184 244.475Z" fill="#F4F7FD"/>
<path d="M188.184 247.7H173.474C173.208 247.7 172.992 247.385 172.992 246.997V246.886C172.992 246.498 173.208 246.183 173.474 246.183H188.184C188.45 246.183 188.666 246.498 188.666 246.886V246.997C188.666 247.385 188.45 247.7 188.184 247.7Z" fill="#F4F7FD"/>
<path d="M188.184 250.925H173.474C173.208 250.925 172.992 250.61 172.992 250.222V250.111C172.992 249.723 173.208 249.408 173.474 249.408H188.184C188.45 249.408 188.666 249.723 188.666 250.111V250.222C188.666 250.61 188.45 250.925 188.184 250.925Z" fill="#F4F7FD"/>
<path d="M188.184 254.15H173.474C173.208 254.15 172.992 253.835 172.992 253.447V253.336C172.992 252.948 173.208 252.633 173.474 252.633H188.184C188.45 252.633 188.666 252.948 188.666 253.336V253.447C188.666 253.835 188.45 254.15 188.184 254.15Z" fill="#F4F7FD"/>
<path d="M358.384 265.598H304.142C302.975 265.598 302.03 264.218 302.03 262.517V118.076C302.03 116.374 302.975 114.995 304.142 114.995H358.384C359.551 114.995 360.497 116.374 360.497 118.076V262.517C360.497 264.218 359.551 265.598 358.384 265.598Z" fill="#F4F7FD"/>
<path d="M355.331 121.934H338.362C338.052 121.934 337.801 121.568 337.801 121.116C337.801 120.665 338.052 120.299 338.362 120.299H355.331C355.641 120.299 355.892 120.665 355.892 121.116C355.892 121.568 355.641 121.934 355.331 121.934Z" fill="#CCE6FF"/>
<path d="M355.331 125.674H338.362C338.052 125.674 337.801 125.308 337.801 124.856C337.801 124.405 338.052 124.038 338.362 124.038H355.331C355.641 124.038 355.892 124.404 355.892 124.856C355.892 125.308 355.641 125.674 355.331 125.674Z" fill="#CCE6FF"/>
<path d="M355.331 129.414H338.362C338.052 129.414 337.801 129.048 337.801 128.596C337.801 128.144 338.052 127.778 338.362 127.778H355.331C355.641 127.778 355.892 128.144 355.892 128.596C355.892 129.048 355.641 129.414 355.331 129.414Z" fill="#CCE6FF"/>
<path d="M355.331 133.154H338.362C338.052 133.154 337.801 132.788 337.801 132.336C337.801 131.884 338.052 131.518 338.362 131.518H355.331C355.641 131.518 355.892 131.884 355.892 132.336C355.892 132.788 355.641 133.154 355.331 133.154Z" fill="#CCE6FF"/>
<path d="M355.331 136.893H338.362C338.052 136.893 337.801 136.527 337.801 136.076C337.801 135.624 338.052 135.258 338.362 135.258H355.331C355.641 135.258 355.892 135.624 355.892 136.076C355.892 136.527 355.641 136.893 355.331 136.893Z" fill="#CCE6FF"/>
<path d="M355.331 140.633H338.362C338.052 140.633 337.801 140.267 337.801 139.816C337.801 139.364 338.052 138.998 338.362 138.998H355.331C355.641 138.998 355.892 139.364 355.892 139.816C355.892 140.267 355.641 140.633 355.331 140.633Z" fill="#CCE6FF"/>
<path d="M355.331 144.373H338.362C338.052 144.373 337.801 144.007 337.801 143.555C337.801 143.104 338.052 142.738 338.362 142.738H355.331C355.641 142.738 355.892 143.104 355.892 143.555C355.892 144.007 355.641 144.373 355.331 144.373Z" fill="#CCE6FF"/>
<path d="M355.331 215.481H338.362C338.052 215.481 337.801 215.115 337.801 214.663C337.801 214.211 338.052 213.845 338.362 213.845H355.331C355.641 213.845 355.892 214.211 355.892 214.663C355.892 215.114 355.641 215.481 355.331 215.481Z" fill="#CCE6FF"/>
<path d="M355.331 219.22H338.362C338.052 219.22 337.801 218.854 337.801 218.403C337.801 217.951 338.052 217.585 338.362 217.585H355.331C355.641 217.585 355.892 217.951 355.892 218.403C355.892 218.854 355.641 219.22 355.331 219.22Z" fill="#CCE6FF"/>
<path d="M355.331 222.96H338.362C338.052 222.96 337.801 222.594 337.801 222.142C337.801 221.691 338.052 221.325 338.362 221.325H355.331C355.641 221.325 355.892 221.691 355.892 222.142C355.892 222.594 355.641 222.96 355.331 222.96Z" fill="#CCE6FF"/>
<path d="M355.331 226.7H338.362C338.052 226.7 337.801 226.334 337.801 225.882C337.801 225.431 338.052 225.065 338.362 225.065H355.331C355.641 225.065 355.892 225.431 355.892 225.882C355.892 226.334 355.641 226.7 355.331 226.7Z" fill="#CCE6FF"/>
<path d="M355.331 230.44H338.362C338.052 230.44 337.801 230.074 337.801 229.622C337.801 229.171 338.052 228.804 338.362 228.804H355.331C355.641 228.804 355.892 229.17 355.892 229.622C355.892 230.074 355.641 230.44 355.331 230.44Z" fill="#CCE6FF"/>
<path d="M355.331 234.18H338.362C338.052 234.18 337.801 233.814 337.801 233.362C337.801 232.911 338.052 232.544 338.362 232.544H355.331C355.641 232.544 355.892 232.91 355.892 233.362C355.892 233.814 355.641 234.18 355.331 234.18Z" fill="#CCE6FF"/>
<path d="M355.331 237.92H338.362C338.052 237.92 337.801 237.554 337.801 237.102C337.801 236.65 338.052 236.284 338.362 236.284H355.331C355.641 236.284 355.892 236.65 355.892 237.102C355.892 237.554 355.641 237.92 355.331 237.92Z" fill="#CCE6FF"/>
<path d="M355.331 242.118H338.362C338.052 242.118 337.801 241.752 337.801 241.3C337.801 240.849 338.052 240.482 338.362 240.482H355.331C355.641 240.482 355.892 240.848 355.892 241.3C355.892 241.752 355.641 242.118 355.331 242.118Z" fill="#CCE6FF"/>
<path d="M355.331 245.858H338.362C338.052 245.858 337.801 245.492 337.801 245.04C337.801 244.589 338.052 244.222 338.362 244.222H355.331C355.641 244.222 355.892 244.588 355.892 245.04C355.892 245.492 355.641 245.858 355.331 245.858Z" fill="#CCE6FF"/>
<path d="M355.331 249.598H338.362C338.052 249.598 337.801 249.232 337.801 248.78C337.801 248.328 338.052 247.962 338.362 247.962H355.331C355.641 247.962 355.892 248.328 355.892 248.78C355.892 249.232 355.641 249.598 355.331 249.598Z" fill="#CCE6FF"/>
<path d="M355.331 253.338H338.362C338.052 253.338 337.801 252.972 337.801 252.52C337.801 252.068 338.052 251.702 338.362 251.702H355.331C355.641 251.702 355.892 252.068 355.892 252.52C355.892 252.971 355.641 253.338 355.331 253.338Z" fill="#CCE6FF"/>
<path d="M355.331 257.077H338.362C338.052 257.077 337.801 256.711 337.801 256.26C337.801 255.808 338.052 255.442 338.362 255.442H355.331C355.641 255.442 355.892 255.808 355.892 256.26C355.892 256.711 355.641 257.077 355.331 257.077Z" fill="#CCE6FF"/>
<path d="M355.331 260.817H338.362C338.052 260.817 337.801 260.451 337.801 260C337.801 259.548 338.052 259.182 338.362 259.182H355.331C355.641 259.182 355.892 259.548 355.892 260C355.892 260.451 355.641 260.817 355.331 260.817Z" fill="#CCE6FF"/>
<path d="M355.331 148.113H338.362C338.052 148.113 337.801 147.747 337.801 147.295C337.801 146.844 338.052 146.478 338.362 146.478H355.331C355.641 146.478 355.892 146.844 355.892 147.295C355.892 147.747 355.641 148.113 355.331 148.113Z" fill="#CCE6FF"/>
<path d="M355.331 151.853H338.362C338.052 151.853 337.801 151.487 337.801 151.035C337.801 150.584 338.052 150.217 338.362 150.217H355.331C355.641 150.217 355.892 150.583 355.892 151.035C355.892 151.487 355.641 151.853 355.331 151.853Z" fill="#CCE6FF"/>
<path d="M355.331 155.593H338.362C338.052 155.593 337.801 155.227 337.801 154.775C337.801 154.324 338.052 153.958 338.362 153.958H355.331C355.641 153.958 355.892 154.324 355.892 154.775C355.892 155.227 355.641 155.593 355.331 155.593Z" fill="#CCE6FF"/>
<path d="M355.331 159.333H338.362C338.052 159.333 337.801 158.967 337.801 158.515C337.801 158.064 338.052 157.697 338.362 157.697H355.331C355.641 157.697 355.892 158.063 355.892 158.515C355.892 158.967 355.641 159.333 355.331 159.333Z" fill="#CCE6FF"/>
<path d="M355.331 163.073H338.362C338.052 163.073 337.801 162.707 337.801 162.255C337.801 161.803 338.052 161.437 338.362 161.437H355.331C355.641 161.437 355.892 161.803 355.892 162.255C355.892 162.707 355.641 163.073 355.331 163.073Z" fill="#CCE6FF"/>
<path d="M355.331 166.812H338.362C338.052 166.812 337.801 166.447 337.801 165.995C337.801 165.543 338.052 165.177 338.362 165.177H355.331C355.641 165.177 355.892 165.543 355.892 165.995C355.892 166.447 355.641 166.812 355.331 166.812Z" fill="#CCE6FF"/>
<path d="M355.331 170.552H338.362C338.052 170.552 337.801 170.186 337.801 169.734C337.801 169.283 338.052 168.917 338.362 168.917H355.331C355.641 168.917 355.892 169.283 355.892 169.734C355.892 170.186 355.641 170.552 355.331 170.552Z" fill="#CCE6FF"/>
<path d="M355.331 174.292H338.362C338.052 174.292 337.801 173.926 337.801 173.474C337.801 173.023 338.052 172.657 338.362 172.657H355.331C355.641 172.657 355.892 173.023 355.892 173.474C355.892 173.926 355.641 174.292 355.331 174.292Z" fill="#CCE6FF"/>
<path d="M355.331 178.032H338.362C338.052 178.032 337.801 177.666 337.801 177.214C337.801 176.763 338.052 176.396 338.362 176.396H355.331C355.641 176.396 355.892 176.762 355.892 177.214C355.892 177.666 355.641 178.032 355.331 178.032Z" fill="#CCE6FF"/>
<path d="M332.394 186.503H307.195C306.885 186.503 306.634 186.137 306.634 185.685C306.634 185.233 306.885 184.867 307.195 184.867H332.394C332.704 184.867 332.955 185.233 332.955 185.685C332.955 186.137 332.704 186.503 332.394 186.503Z" fill="#CCE6FF"/>
<path d="M332.394 190.243H307.195C306.885 190.243 306.634 189.877 306.634 189.425C306.634 188.973 306.885 188.607 307.195 188.607H332.394C332.704 188.607 332.955 188.973 332.955 189.425C332.955 189.877 332.704 190.243 332.394 190.243Z" fill="#CCE6FF"/>
<path d="M332.394 193.982H307.195C306.885 193.982 306.634 193.616 306.634 193.165C306.634 192.713 306.885 192.347 307.195 192.347H332.394C332.704 192.347 332.955 192.713 332.955 193.165C332.955 193.616 332.704 193.982 332.394 193.982Z" fill="#CCE6FF"/>
<path d="M332.394 197.722H307.195C306.885 197.722 306.634 197.356 306.634 196.905C306.634 196.453 306.885 196.087 307.195 196.087H332.394C332.704 196.087 332.955 196.453 332.955 196.905C332.955 197.356 332.704 197.722 332.394 197.722Z" fill="#CCE6FF"/>
<path d="M332.394 201.462H307.195C306.885 201.462 306.634 201.096 306.634 200.644C306.634 200.193 306.885 199.827 307.195 199.827H332.394C332.704 199.827 332.955 200.193 332.955 200.644C332.955 201.096 332.704 201.462 332.394 201.462Z" fill="#CCE6FF"/>
<path d="M332.394 205.202H307.195C306.885 205.202 306.634 204.836 306.634 204.384C306.634 203.933 306.885 203.567 307.195 203.567H332.394C332.704 203.567 332.955 203.933 332.955 204.384C332.955 204.836 332.704 205.202 332.394 205.202Z" fill="#CCE6FF"/>
<path d="M332.394 208.942H307.195C306.885 208.942 306.634 208.576 306.634 208.124C306.634 207.673 306.885 207.306 307.195 207.306H332.394C332.704 207.306 332.955 207.672 332.955 208.124C332.955 208.576 332.704 208.942 332.394 208.942Z" fill="#CCE6FF"/>
<path d="M332.394 212.682H307.195C306.885 212.682 306.634 212.316 306.634 211.864C306.634 211.413 306.885 211.046 307.195 211.046H332.394C332.704 211.046 332.955 211.412 332.955 211.864C332.955 212.316 332.704 212.682 332.394 212.682Z" fill="#CCE6FF"/>
<path d="M332.394 216.422H307.195C306.885 216.422 306.634 216.056 306.634 215.604C306.634 215.152 306.885 214.786 307.195 214.786H332.394C332.704 214.786 332.955 215.152 332.955 215.604C332.955 216.056 332.704 216.422 332.394 216.422Z" fill="#CCE6FF"/>
<path d="M332.394 220.162H307.195C306.885 220.162 306.634 219.796 306.634 219.344C306.634 218.892 306.885 218.526 307.195 218.526H332.394C332.704 218.526 332.955 218.892 332.955 219.344C332.955 219.795 332.704 220.162 332.394 220.162Z" fill="#CCE6FF"/>
<path d="M332.394 223.901H307.195C306.885 223.901 306.634 223.535 306.634 223.084C306.634 222.632 306.885 222.266 307.195 222.266H332.394C332.704 222.266 332.955 222.632 332.955 223.084C332.955 223.535 332.704 223.901 332.394 223.901Z" fill="#CCE6FF"/>
<path d="M332.394 227.641H307.195C306.885 227.641 306.634 227.275 306.634 226.823C306.634 226.372 306.885 226.006 307.195 226.006H332.394C332.704 226.006 332.955 226.372 332.955 226.823C332.955 227.275 332.704 227.641 332.394 227.641Z" fill="#CCE6FF"/>
<path d="M332.394 231.381H307.195C306.885 231.381 306.634 231.015 306.634 230.563C306.634 230.112 306.885 229.746 307.195 229.746H332.394C332.704 229.746 332.955 230.112 332.955 230.563C332.955 231.015 332.704 231.381 332.394 231.381Z" fill="#CCE6FF"/>
<path d="M332.394 235.121H307.195C306.885 235.121 306.634 234.755 306.634 234.303C306.634 233.852 306.885 233.485 307.195 233.485H332.394C332.704 233.485 332.955 233.851 332.955 234.303C332.955 234.755 332.704 235.121 332.394 235.121Z" fill="#CCE6FF"/>
<path d="M332.394 238.861H307.195C306.885 238.861 306.634 238.495 306.634 238.043C306.634 237.592 306.885 237.225 307.195 237.225H332.394C332.704 237.225 332.955 237.591 332.955 238.043C332.955 238.495 332.704 238.861 332.394 238.861Z" fill="#CCE6FF"/>
<path d="M332.394 242.601H307.195C306.885 242.601 306.634 242.235 306.634 241.783C306.634 241.332 306.885 240.965 307.195 240.965H332.394C332.704 240.965 332.955 241.331 332.955 241.783C332.955 242.235 332.704 242.601 332.394 242.601Z" fill="#CCE6FF"/>
<path d="M332.394 246.094H307.195C306.885 246.094 306.634 245.728 306.634 245.276C306.634 244.825 306.885 244.458 307.195 244.458H332.394C332.704 244.458 332.955 244.824 332.955 245.276C332.955 245.728 332.704 246.094 332.394 246.094Z" fill="#CCE6FF"/>
<path d="M332.394 249.833H307.195C306.885 249.833 306.634 249.467 306.634 249.016C306.634 248.564 306.885 248.198 307.195 248.198H332.394C332.704 248.198 332.955 248.564 332.955 249.016C332.955 249.467 332.704 249.833 332.394 249.833Z" fill="#CCE6FF"/>
<path d="M332.394 253.573H307.195C306.885 253.573 306.634 253.207 306.634 252.756C306.634 252.304 306.885 251.938 307.195 251.938H332.394C332.704 251.938 332.955 252.304 332.955 252.756C332.955 253.207 332.704 253.573 332.394 253.573Z" fill="#CCE6FF"/>
<path d="M332.394 257.313H307.195C306.885 257.313 306.634 256.947 306.634 256.495C306.634 256.044 306.885 255.678 307.195 255.678H332.394C332.704 255.678 332.955 256.044 332.955 256.495C332.955 256.947 332.704 257.313 332.394 257.313Z" fill="#CCE6FF"/>
<path d="M332.394 261.053H307.195C306.885 261.053 306.634 260.687 306.634 260.235C306.634 259.784 306.885 259.418 307.195 259.418H332.394C332.704 259.418 332.955 259.784 332.955 260.235C332.955 260.687 332.704 261.053 332.394 261.053Z" fill="#CCE6FF"/>
<path d="M355.411 209.144H338.281C338.016 209.144 337.801 208.83 337.801 208.443V185.364C337.801 184.977 338.016 184.663 338.281 184.663H355.411C355.676 184.663 355.892 184.977 355.892 185.364V208.443C355.892 208.83 355.676 209.144 355.411 209.144Z" fill="#CCE6FF"/>
<path d="M332.306 178.032H307.283C306.925 178.032 306.635 177.608 306.635 177.086V121.245C306.635 120.722 306.925 120.299 307.283 120.299H332.306C332.664 120.299 332.955 120.722 332.955 121.245V177.086C332.955 177.608 332.664 178.032 332.306 178.032Z" fill="#CCE6FF"/>
<path d="M330.088 140.633H309.501C309.285 140.633 309.109 140.378 309.109 140.062V124.468C309.109 124.153 309.285 123.897 309.501 123.897H330.088C330.305 123.897 330.48 124.153 330.48 124.468V140.062C330.48 140.378 330.305 140.633 330.088 140.633Z" fill="#F4F7FD"/>
<path d="M330.088 159.403H309.501C309.285 159.403 309.109 159.148 309.109 158.832V143.238C309.109 142.923 309.285 142.667 309.501 142.667H330.088C330.305 142.667 330.48 142.923 330.48 143.238V158.832C330.48 159.148 330.305 159.403 330.088 159.403Z" fill="#F4F7FD"/>
<path d="M318.829 175.331H309.449C309.261 175.331 309.109 175.109 309.109 174.836V161.933C309.109 161.659 309.261 161.438 309.449 161.438H318.829C319.016 161.438 319.168 161.659 319.168 161.933V174.836C319.168 175.109 319.016 175.331 318.829 175.331Z" fill="#F4F7FD"/>
<path d="M330.136 175.331H320.519C320.33 175.331 320.176 175.107 320.176 174.83V161.939C320.176 161.662 320.33 161.438 320.519 161.438H330.136C330.326 161.438 330.48 161.662 330.48 161.939V174.83C330.48 175.107 330.326 175.331 330.136 175.331Z" fill="#F4F7FD"/>
<path d="M290.421 265.598H236.179C235.012 265.598 234.066 264.218 234.066 262.517V118.076C234.066 116.374 235.012 114.995 236.179 114.995H290.421C291.587 114.995 292.533 116.374 292.533 118.076V262.517C292.533 264.218 291.587 265.598 290.421 265.598Z" fill="#F4F7FD"/>
<path d="M260.769 155.537H239.674C239.136 155.537 238.701 154.901 238.701 154.117V123.353C238.701 122.569 239.136 121.934 239.674 121.934H260.769C261.307 121.934 261.743 122.569 261.743 123.353V154.117C261.743 154.901 261.307 155.537 260.769 155.537Z" fill="#CCE6FF"/>
<path d="M288.011 123.976H271.66C271.379 123.976 271.151 123.644 271.151 123.234V122.676C271.151 122.266 271.379 121.934 271.66 121.934H288.011C288.292 121.934 288.52 122.266 288.52 122.676V123.234C288.52 123.644 288.292 123.976 288.011 123.976Z" fill="#CCE6FF"/>
<path d="M288.011 127.537H271.66C271.379 127.537 271.151 127.205 271.151 126.795V126.237C271.151 125.827 271.379 125.495 271.66 125.495H288.011C288.292 125.495 288.52 125.827 288.52 126.237V126.795C288.52 127.205 288.292 127.537 288.011 127.537Z" fill="#CCE6FF"/>
<path d="M288.011 131.098H271.66C271.379 131.098 271.151 130.766 271.151 130.356V129.798C271.151 129.388 271.379 129.056 271.66 129.056H288.011C288.292 129.056 288.52 129.388 288.52 129.798V130.356C288.52 130.766 288.292 131.098 288.011 131.098Z" fill="#CCE6FF"/>
<path d="M288.011 134.659H271.66C271.379 134.659 271.151 134.327 271.151 133.917V133.359C271.151 132.949 271.379 132.617 271.66 132.617H288.011C288.292 132.617 288.52 132.949 288.52 133.359V133.917C288.52 134.327 288.292 134.659 288.011 134.659Z" fill="#CCE6FF"/>
<path d="M288.011 138.22H271.66C271.379 138.22 271.151 137.888 271.151 137.478V136.92C271.151 136.51 271.379 136.178 271.66 136.178H288.011C288.292 136.178 288.52 136.51 288.52 136.92V137.478C288.52 137.888 288.292 138.22 288.011 138.22Z" fill="#CCE6FF"/>
<path d="M288.011 141.781H271.66C271.379 141.781 271.151 141.449 271.151 141.039V140.481C271.151 140.071 271.379 139.739 271.66 139.739H288.011C288.292 139.739 288.52 140.071 288.52 140.481V141.039C288.52 141.449 288.292 141.781 288.011 141.781Z" fill="#CCE6FF"/>
<path d="M288.011 145.342H271.66C271.379 145.342 271.151 145.01 271.151 144.601V144.042C271.151 143.633 271.379 143.301 271.66 143.301H288.011C288.292 143.301 288.52 143.633 288.52 144.042V144.601C288.52 145.01 288.292 145.342 288.011 145.342Z" fill="#CCE6FF"/>
<path d="M288.011 148.903H271.66C271.379 148.903 271.151 148.571 271.151 148.161V147.603C271.151 147.193 271.379 146.861 271.66 146.861H288.011C288.292 146.861 288.52 147.193 288.52 147.603V148.161C288.52 148.571 288.292 148.903 288.011 148.903Z" fill="#CCE6FF"/>
<path d="M288.011 152.464H271.66C271.379 152.464 271.151 152.132 271.151 151.722V151.164C271.151 150.754 271.379 150.422 271.66 150.422H288.011C288.292 150.422 288.52 150.754 288.52 151.164V151.722C288.52 152.132 288.292 152.464 288.011 152.464Z" fill="#CCE6FF"/>
<path d="M288.011 156.025H271.66C271.379 156.025 271.151 155.693 271.151 155.284V154.725C271.151 154.316 271.379 153.984 271.66 153.984H288.011C288.292 153.984 288.52 154.316 288.52 154.725V155.284C288.52 155.693 288.292 156.025 288.011 156.025Z" fill="#CCE6FF"/>
<path d="M266.142 127.004C266.816 127.004 267.363 126.207 267.363 125.224C267.363 124.24 266.816 123.443 266.142 123.443C265.468 123.443 264.921 124.24 264.921 125.224C264.921 126.207 265.468 127.004 266.142 127.004Z" fill="#CCE6FF"/>
<path d="M266.142 141.004C266.816 141.004 267.363 140.207 267.363 139.224C267.363 138.24 266.816 137.443 266.142 137.443C265.468 137.443 264.921 138.24 264.921 139.224C264.921 140.207 265.468 141.004 266.142 141.004Z" fill="#CCE6FF"/>
<path d="M267.363 153.224C267.363 154.207 266.816 155.004 266.142 155.004C265.468 155.004 264.921 154.207 264.921 153.224C264.921 152.24 265.468 151.443 266.142 151.443C266.816 151.443 267.363 152.24 267.363 153.224Z" fill="#CCE6FF"/>
<path d="M288.52 161.021H238.701V165.177H288.52V161.021Z" fill="#CCE6FF"/>
<path d="M288.52 168.228H238.701V172.384H288.52V168.228Z" fill="#CCE6FF"/>
<path d="M264.921 175.434H238.701V179.59H264.921V175.434Z" fill="#CCE6FF"/>
<path d="M288.141 187.424H239.08C238.87 187.424 238.701 187.177 238.701 186.872V185.51C238.701 185.205 238.87 184.958 239.08 184.958H288.141C288.35 184.958 288.52 185.205 288.52 185.51V186.872C288.52 187.177 288.35 187.424 288.141 187.424Z" fill="#CCE6FF"/>
<path d="M288.141 192.475H239.08C238.87 192.475 238.701 192.228 238.701 191.923V190.561C238.701 190.256 238.87 190.009 239.08 190.009H288.141C288.35 190.009 288.52 190.256 288.52 190.561V191.923C288.52 192.228 288.35 192.475 288.141 192.475Z" fill="#CCE6FF"/>
<path d="M288.141 197.526H239.08C238.87 197.526 238.701 197.279 238.701 196.973V195.612C238.701 195.307 238.87 195.059 239.08 195.059H288.141C288.35 195.059 288.52 195.307 288.52 195.612V196.973C288.52 197.279 288.35 197.526 288.141 197.526Z" fill="#CCE6FF"/>
<path d="M288.141 202.577H239.08C238.87 202.577 238.701 202.33 238.701 202.024V200.663C238.701 200.358 238.87 200.11 239.08 200.11H288.141C288.35 200.11 288.52 200.358 288.52 200.663V202.024C288.52 202.33 288.35 202.577 288.141 202.577Z" fill="#CCE6FF"/>
<path d="M288.141 207.628H239.08C238.87 207.628 238.701 207.38 238.701 207.075V205.714C238.701 205.409 238.87 205.161 239.08 205.161H288.141C288.35 205.161 288.52 205.409 288.52 205.714V207.075C288.52 207.38 288.35 207.628 288.141 207.628Z" fill="#CCE6FF"/>
<path d="M288.141 212.679H239.08C238.87 212.679 238.701 212.431 238.701 212.126V210.765C238.701 210.46 238.87 210.212 239.08 210.212H288.141C288.35 210.212 288.52 210.46 288.52 210.765V212.126C288.52 212.431 288.35 212.679 288.141 212.679Z" fill="#CCE6FF"/>
<path d="M263.638 217.73H238.97C238.821 217.73 238.701 217.554 238.701 217.336V215.656C238.701 215.439 238.821 215.263 238.97 215.263H263.638C263.787 215.263 263.908 215.439 263.908 215.656V217.336C263.908 217.554 263.787 217.73 263.638 217.73Z" fill="#CCE6FF"/>
<path d="M252.087 247.699H240.059C239.309 247.699 238.701 246.812 238.701 245.718V227.046C238.701 225.952 239.309 225.065 240.059 225.065H252.087C252.837 225.065 253.446 225.952 253.446 227.046V245.718C253.446 246.812 252.837 247.699 252.087 247.699Z" fill="#CCE6FF"/>
<path d="M269.624 247.602H257.596C256.846 247.602 256.238 246.715 256.238 245.62V226.948C256.238 225.854 256.846 224.967 257.596 224.967H269.624C270.374 224.967 270.983 225.854 270.983 226.948V245.62C270.983 246.715 270.374 247.602 269.624 247.602Z" fill="#CCE6FF"/>
<path d="M287.161 247.504H275.133C274.383 247.504 273.775 246.617 273.775 245.522V226.85C273.775 225.756 274.383 224.869 275.133 224.869H287.161C287.912 224.869 288.52 225.756 288.52 226.85V245.522C288.52 246.617 287.912 247.504 287.161 247.504Z" fill="#CCE6FF"/>
<path d="M288.297 254.15H238.924C238.801 254.15 238.701 254.004 238.701 253.824V252.333C238.701 252.153 238.801 252.008 238.924 252.008H288.297C288.42 252.008 288.52 252.153 288.52 252.333V253.824C288.52 254.004 288.42 254.15 288.297 254.15Z" fill="#CCE6FF"/>
<path d="M288.297 258.149H238.924C238.801 258.149 238.701 258.003 238.701 257.823V256.332C238.701 256.152 238.801 256.006 238.924 256.006H288.297C288.42 256.006 288.52 256.152 288.52 256.332V257.823C288.52 258.003 288.42 258.149 288.297 258.149Z" fill="#CCE6FF"/>
<path d="M268.326 262.148H238.873C238.778 262.148 238.701 262.035 238.701 261.896V260.257C238.701 260.118 238.778 260.005 238.873 260.005H268.326C268.422 260.005 268.499 260.118 268.499 260.257V261.896C268.499 262.035 268.422 262.148 268.326 262.148Z" fill="#CCE6FF"/>
<path d="M175.853 177.49H137.048C135.97 177.49 135.096 176.215 135.096 174.643V137.562C135.096 135.99 135.97 134.715 137.048 134.715H175.853C176.932 134.715 177.806 135.99 177.806 137.562V174.643C177.806 176.215 176.932 177.49 175.853 177.49Z" fill="#3C94F8"/>
<path d="M146.095 159.844C146.095 161.343 145.943 162.507 145.639 163.336C145.075 164.851 144.002 165.608 142.421 165.608C141.508 165.608 140.728 165.247 140.081 164.526C139.434 163.805 139.111 162.523 139.111 160.678V159.409H140.66V160.678C140.66 161.644 140.808 162.372 141.104 162.859C141.401 163.346 141.862 163.59 142.487 163.59C143.367 163.59 143.943 163.151 144.214 162.273C144.38 161.733 144.463 160.714 144.463 159.216V147.387H146.095L146.095 159.844Z" fill="#102A54"/>
<path d="M158.622 149.925C159.429 151.495 159.832 153.505 159.832 155.954C159.832 158.604 159.371 160.807 158.448 162.563C157.366 164.625 155.822 165.656 153.817 165.656C151.945 165.656 150.473 164.754 149.401 162.949C148.445 161.209 147.968 159.01 147.968 156.352C147.968 153.952 148.376 151.898 149.194 150.19C150.243 147.999 151.795 146.904 153.85 146.904C155.999 146.904 157.59 147.911 158.622 149.925ZM157.168 161.238C157.817 159.718 158.142 157.971 158.142 155.996C158.142 153.908 157.768 152.227 157.019 150.953C156.271 149.68 155.247 149.043 153.95 149.043C152.69 149.043 151.663 149.674 150.867 150.935C150.072 152.197 149.675 154.057 149.675 156.516C149.675 158.483 150.015 160.141 150.698 161.492C151.38 162.842 152.486 163.517 154.016 163.517C155.469 163.517 156.519 162.758 157.168 161.238Z" fill="#102A54"/>
<path d="M161.754 147.387H167.017C168.451 147.387 169.471 148.008 170.077 149.248C170.433 149.981 170.611 150.827 170.611 151.785C170.611 152.905 170.393 153.823 169.956 154.54C169.73 154.919 169.404 155.265 168.979 155.579C169.603 155.926 170.07 156.316 170.379 156.751C170.926 157.524 171.199 158.592 171.199 159.953C171.199 161.097 170.952 162.132 170.457 163.058C169.718 164.444 168.542 165.136 166.931 165.136H161.754V147.387H161.754ZM166.4 154.891C167.104 154.891 167.651 154.75 168.041 154.468C168.655 154.025 168.962 153.227 168.962 152.075C168.962 150.915 168.636 150.134 167.983 149.731C167.615 149.506 167.067 149.393 166.342 149.393H163.37V154.891H166.4ZM166.958 163.082C167.978 163.082 168.706 162.656 169.141 161.802C169.414 161.262 169.55 160.61 169.55 159.844C169.55 158.555 169.152 157.677 168.354 157.21C167.931 156.961 167.37 156.836 166.673 156.836H163.37V163.082H166.958Z" fill="#102A54"/>
<path d="M172.44 188.063C172.196 188.063 171.964 187.9 171.808 187.602L165.89 176.334H135.918C134.7 176.334 133.708 174.888 133.708 173.112V136.031C133.708 134.254 134.7 132.809 135.918 132.809H174.723C175.941 132.809 176.932 134.254 176.932 136.031V173.111C176.932 174.888 175.941 176.334 174.723 176.334H173.249V186.889C173.249 187.4 173.035 187.835 172.704 187.999C172.616 188.042 172.527 188.063 172.44 188.063ZM135.918 133.559C134.983 133.559 134.223 134.668 134.223 136.031V173.112C134.223 174.475 134.983 175.584 135.918 175.584H166.143L172.216 187.146C172.333 187.368 172.492 187.311 172.538 187.289C172.585 187.266 172.735 187.17 172.735 186.89V175.584H174.723C175.658 175.584 176.418 174.475 176.418 173.112V136.031C176.418 134.668 175.658 133.559 174.723 133.559L135.918 133.559Z" fill="#102A54"/>
<path d="M266.041 102.246H227.236C226.158 102.246 225.283 100.971 225.283 99.3988V62.3183C225.283 60.7458 226.158 59.4711 227.236 59.4711H266.041C267.119 59.4711 267.993 60.7458 267.993 62.3183V99.3988C267.993 100.971 267.119 102.246 266.041 102.246Z" fill="#3C94F8"/>
<path d="M236.283 84.6003C236.283 86.0986 236.131 87.2626 235.827 88.0921C235.262 89.6066 234.19 90.3636 232.608 90.3636C231.696 90.3636 230.916 90.0031 230.269 89.2821C229.622 88.5613 229.298 87.2786 229.298 85.4338V84.1651H230.848V85.4338C230.848 86.4003 230.996 87.1276 231.292 87.6148C231.588 88.1023 232.049 88.3458 232.674 88.3458C233.554 88.3458 234.13 87.9068 234.402 87.0288C234.568 86.4893 234.651 85.4701 234.651 83.9718V72.1431H236.283V84.6003H236.283Z" fill="#102A54"/>
<path d="M248.81 74.6808C249.616 76.2515 250.02 78.2613 250.02 80.71C250.02 83.3603 249.558 85.5633 248.636 87.319C247.553 89.3813 246.009 90.412 244.005 90.412C242.132 90.412 240.66 89.51 239.589 87.7055C238.633 85.9655 238.155 83.7665 238.155 81.1085C238.155 78.7083 238.564 76.6543 239.381 74.9465C240.431 72.7555 241.983 71.66 244.038 71.66C246.186 71.66 247.777 72.667 248.81 74.6808ZM247.356 85.994C248.005 84.4745 248.329 82.727 248.329 80.752C248.329 78.664 247.955 76.9833 247.207 75.7095C246.458 74.4358 245.435 73.7988 244.137 73.7988C242.878 73.7988 241.85 74.4298 241.055 75.6913C240.26 76.953 239.862 78.813 239.862 81.2718C239.862 83.239 240.203 84.8975 240.885 86.2478C241.567 87.5983 242.673 88.2733 244.203 88.2733C245.656 88.2735 246.707 87.5138 247.356 85.994Z" fill="#102A54"/>
<path d="M251.941 72.1433H257.204C258.638 72.1433 259.659 72.7638 260.265 74.0041C260.62 74.7371 260.798 75.5828 260.798 76.5413C260.798 77.6611 260.58 78.5793 260.144 79.2961C259.917 79.6748 259.591 80.0211 259.166 80.3351C259.79 80.6816 260.257 81.0721 260.566 81.5071C261.113 82.2803 261.386 83.3478 261.386 84.7088C261.386 85.8528 261.139 86.8878 260.644 87.8141C259.905 89.1996 258.73 89.8923 257.118 89.8923H251.941V72.1433H251.941ZM256.588 79.6466C257.291 79.6466 257.838 79.5058 258.229 79.2238C258.843 78.7808 259.15 77.9836 259.15 76.8316C259.15 75.6716 258.823 74.8906 258.17 74.4876C257.802 74.2621 257.255 74.1493 256.529 74.1493H253.557V79.6468H256.588V79.6466ZM257.145 87.8386C258.165 87.8386 258.893 87.4118 259.328 86.5578C259.601 86.0183 259.738 85.3658 259.738 84.6006C259.738 83.3118 259.339 82.4338 258.542 81.9666C258.118 81.7171 257.558 81.5921 256.86 81.5921H253.557V87.8388H257.145V87.8386Z" fill="#102A54"/>
<path d="M262.627 112.819C262.384 112.819 262.152 112.656 261.995 112.358L256.077 101.09H226.106C224.887 101.09 223.896 99.6443 223.896 97.8676V60.7871C223.896 59.0103 224.887 57.5648 226.106 57.5648H264.91C266.129 57.5648 267.12 59.0103 267.12 60.7871V97.8676C267.12 99.6443 266.129 101.09 264.91 101.09H263.437V111.646C263.437 112.156 263.222 112.591 262.891 112.755C262.804 112.798 262.715 112.819 262.627 112.819ZM226.106 58.3151C225.171 58.3151 224.41 59.4241 224.41 60.7873V97.8676C224.41 99.2308 225.171 100.34 226.106 100.34H256.331L262.404 111.902C262.52 112.125 262.68 112.067 262.726 112.045C262.772 112.022 262.922 111.926 262.922 111.646V100.34H264.91C265.845 100.34 266.606 99.2308 266.606 97.8676V60.7871C266.606 59.4238 265.845 58.3148 264.91 58.3148L226.106 58.3151Z" fill="#102A54"/>
<path d="M350.085 125.898H388.89C389.968 125.898 390.843 124.623 390.843 123.051V85.9703C390.843 84.3978 389.968 83.123 388.89 83.123H350.085C349.007 83.123 348.133 84.3978 348.133 85.9703V123.051C348.133 124.623 349.007 125.898 350.085 125.898Z" fill="#3C94F8"/>
<path d="M361.724 108.252C361.724 109.751 361.572 110.915 361.268 111.744C360.704 113.259 359.631 114.016 358.05 114.016C357.137 114.016 356.357 113.655 355.71 112.934C355.063 112.213 354.74 110.931 354.74 109.086V107.817H356.289V109.086C356.289 110.052 356.437 110.78 356.733 111.267C357.03 111.754 357.491 111.998 358.116 111.998C358.996 111.998 359.571 111.559 359.843 110.681C360.009 110.141 360.092 109.122 360.092 107.624V95.7953H361.724L361.724 108.252Z" fill="#102A54"/>
<path d="M374.251 98.3328C375.058 99.9035 375.461 101.913 375.461 104.362C375.461 107.012 375 109.215 374.077 110.971C372.995 113.033 371.451 114.064 369.446 114.064C367.573 114.064 366.102 113.162 365.03 111.358C364.074 109.618 363.597 107.419 363.597 104.761C363.597 102.36 364.005 100.306 364.823 98.5985C365.872 96.4075 367.424 95.312 369.479 95.312C371.628 95.312 373.218 96.319 374.251 98.3328ZM372.797 109.646C373.446 108.127 373.771 106.379 373.771 104.404C373.771 102.316 373.397 100.635 372.648 99.3615C371.9 98.0878 370.876 97.4508 369.579 97.4508C368.319 97.4508 367.292 98.0818 366.496 99.3433C365.701 100.605 365.303 102.465 365.303 104.924C365.303 106.891 365.644 108.55 366.327 109.9C367.009 111.25 368.115 111.925 369.645 111.925C371.097 111.926 372.148 111.166 372.797 109.646Z" fill="#102A54"/>
<path d="M377.383 95.7953H382.645C384.08 95.7953 385.1 96.4155 385.706 97.656C386.062 98.389 386.24 99.2348 386.24 100.193C386.24 101.313 386.021 102.231 385.585 102.948C385.359 103.327 385.033 103.673 384.608 103.987C385.232 104.334 385.698 104.724 386.008 105.159C386.555 105.932 386.828 107 386.828 108.361C386.828 109.505 386.58 110.54 386.086 111.466C385.347 112.852 384.171 113.544 382.56 113.544H377.383L377.383 95.7953ZM382.029 103.299C382.733 103.299 383.28 103.158 383.67 102.876C384.284 102.433 384.591 101.635 384.591 100.483C384.591 99.3233 384.265 98.5423 383.612 98.1393C383.243 97.9138 382.696 97.801 381.971 97.801H378.999V103.299H382.029ZM382.587 111.491C383.607 111.491 384.335 111.064 384.77 110.21C385.043 109.67 385.179 109.018 385.179 108.253C385.179 106.964 384.781 106.086 383.983 105.619C383.56 105.369 382.999 105.244 382.302 105.244H378.999V111.491H382.587V111.491Z" fill="#102A54"/>
<path d="M353.499 136.471C353.411 136.471 353.322 136.45 353.235 136.407C352.904 136.243 352.69 135.808 352.69 135.297V124.742H351.215C349.997 124.742 349.006 123.296 349.006 121.519V84.439C349.006 82.6623 349.997 81.2168 351.215 81.2168H390.02C391.238 81.2168 392.23 82.6623 392.23 84.439V121.52C392.23 123.296 391.239 124.742 390.02 124.742H360.049L354.131 136.01C353.974 136.308 353.742 136.471 353.499 136.471ZM351.216 81.9668C350.281 81.9668 349.52 83.0758 349.52 84.439V121.52C349.52 122.883 350.281 123.992 351.216 123.992H353.204V135.298C353.204 135.578 353.354 135.674 353.4 135.697C353.446 135.72 353.605 135.777 353.723 135.554L359.795 123.992H390.021C390.955 123.992 391.716 122.883 391.716 121.52V84.439C391.716 83.0758 390.955 81.9668 390.021 81.9668H351.216Z" fill="#102A54"/>
<path d="M281.849 303.72C288.119 287.917 289.794 269.5 286.565 251.86C283.336 234.22 275.59 219.47 264.754 210.327C253.918 201.183 241.289 198.741 229.193 203.45C217.097 208.158 206.983 219.455 200.713 235.257C194.443 251.06 192.768 269.478 195.997 287.117C198.645 301.586 204.334 314.107 212.273 323.188C211.48 323.254 210.725 323.88 210.297 324.957L176.494 410.156C175.819 411.856 176.217 414.031 177.383 415.015L186.611 422.802C187.777 423.786 189.269 423.205 189.943 421.505L223.747 336.306C224.174 335.229 224.17 333.961 223.813 332.927C233.168 338.438 243.448 339.39 253.369 335.528C265.465 330.819 275.579 319.523 281.849 303.72ZM220.985 320.644C211.615 312.738 204.917 299.984 202.125 284.731C199.333 269.479 200.781 253.554 206.203 239.89C211.624 226.226 220.37 216.458 230.829 212.387C241.287 208.315 252.207 210.427 261.577 218.333C270.947 226.239 277.645 238.993 280.437 254.246C283.229 269.498 281.78 285.423 276.359 299.087C270.938 312.752 262.192 322.519 251.733 326.591C241.274 330.662 230.354 328.55 220.985 320.644Z" fill="#102A54"/>
<path d="M268.668 312.34C284.199 289.691 284.199 252.97 268.668 230.321C253.137 207.672 227.957 207.672 212.426 230.321C196.896 252.97 196.896 289.691 212.426 312.34C227.957 334.99 253.137 334.989 268.668 312.34Z" fill="white"/>
<path opacity="0.61" d="M268.668 312.34C284.199 289.691 284.199 252.97 268.668 230.321C253.137 207.672 227.957 207.672 212.426 230.321C196.896 252.97 196.896 289.691 212.426 312.34C227.957 334.99 253.137 334.989 268.668 312.34Z" fill="#CCE6FF"/>
<mask id="mask2_12_43" style="mask-type:luminance" maskUnits="userSpaceOnUse" x="200" y="213" width="81" height="117">
<path d="M268.668 312.34C284.199 289.691 284.199 252.97 268.668 230.321C253.137 207.672 227.957 207.672 212.426 230.321C196.896 252.97 196.896 289.691 212.426 312.34C227.957 334.99 253.137 334.989 268.668 312.34Z" fill="white"/>
</mask>
<g mask="url(#mask2_12_43)">
<path opacity="0.26" d="M259.705 213.816L193.064 254.536L194.125 282.6L276.778 235.345L259.705 213.816Z" fill="#3C94F8"/>
</g>
<mask id="mask3_12_43" style="mask-type:luminance" maskUnits="userSpaceOnUse" x="200" y="213" width="81" height="117">
<path d="M268.668 312.34C284.199 289.691 284.199 252.97 268.668 230.321C253.137 207.672 227.957 207.672 212.426 230.321C196.896 252.97 196.896 289.691 212.426 312.34C227.957 334.99 253.137 334.989 268.668 312.34Z" fill="white"/>
</mask>
<g mask="url(#mask3_12_43)">
<path opacity="0.18" d="M287.913 239.086L198.555 291.266L206.585 314.88L294.11 264.839L287.913 239.086Z" fill="#3C94F8"/>
</g>
<mask id="mask4_12_43" style="mask-type:luminance" maskUnits="userSpaceOnUse" x="200" y="213" width="81" height="117">
<path d="M268.668 312.34C284.199 289.691 284.199 252.97 268.668 230.321C253.137 207.672 227.957 207.672 212.426 230.321C196.896 252.97 196.896 289.691 212.426 312.34C227.957 334.99 253.137 334.989 268.668 312.34Z" fill="white"/>
</mask>
<g mask="url(#mask4_12_43)">
<path opacity="0.1" d="M295.073 272.477L205.714 324.657L213.102 337.052L298.821 288.055L295.073 272.477Z" fill="#3C94F8"/>
</g>
<path opacity="0.14" d="M285.645 309.718C291.915 293.915 293.59 275.498 290.361 257.858C287.132 240.219 279.386 225.469 268.55 216.325C257.714 207.182 245.085 204.739 232.989 209.448C220.893 214.157 210.779 225.453 204.509 241.256C198.239 257.059 196.564 275.476 199.793 293.116C202.441 307.584 208.13 320.106 216.069 329.187C215.276 329.252 214.521 329.878 214.093 330.955L180.29 416.154C179.615 417.854 180.014 420.03 181.179 421.014L190.407 428.8C191.573 429.784 193.065 429.203 193.739 427.503L227.543 342.304C227.97 341.227 227.966 339.96 227.61 338.925C236.965 344.436 247.244 345.389 257.165 341.527C269.261 336.817 279.375 325.521 285.645 309.718ZM224.781 326.642C215.411 318.736 208.713 305.982 205.921 290.73C203.13 275.477 204.578 259.552 209.999 245.888C215.42 232.224 224.166 222.456 234.625 218.385C245.084 214.313 256.004 216.425 265.373 224.331C274.743 232.238 281.441 244.991 284.233 260.244C287.024 275.496 285.576 291.422 280.155 305.086C274.734 318.75 265.988 328.517 255.529 332.589C245.07 336.66 234.15 334.549 224.781 326.642Z" fill="#3C94F8"/>
<path d="M443.012 218.982H310.254C300.977 218.982 293.458 208.015 293.458 194.488C293.458 180.96 300.978 169.994 310.254 169.994H443.012C452.288 169.994 459.808 180.96 459.808 194.488C459.808 208.015 452.288 218.982 443.012 218.982Z" fill="#F4F7FD"/>
<path d="M440.668 218.611H307.909C298.364 218.611 290.599 207.286 290.599 193.366C290.599 179.447 298.364 168.122 307.909 168.122H440.668C450.213 168.122 457.978 179.447 457.978 193.366C457.978 207.286 450.212 218.611 440.668 218.611ZM307.909 169.622C298.932 169.622 291.628 180.274 291.628 193.367C291.628 206.459 298.932 217.111 307.909 217.111H440.668C449.645 217.111 456.949 206.459 456.949 193.367C456.949 180.274 449.646 169.622 440.668 169.622H307.909Z" fill="#102A54"/>
<path d="M310.706 194.852H309.101C308.595 194.852 308.186 194.255 308.186 193.518V191.177C308.186 190.44 308.595 189.843 309.101 189.843H310.706C311.212 189.843 311.621 190.44 311.621 191.177V193.518C311.621 194.255 311.212 194.852 310.706 194.852Z" fill="#102A54"/>
<path d="M316.729 194.852H315.124C314.619 194.852 314.209 194.255 314.209 193.518V191.177C314.209 190.44 314.619 189.843 315.124 189.843H316.729C317.235 189.843 317.644 190.44 317.644 191.177V193.518C317.644 194.255 317.235 194.852 316.729 194.852Z" fill="#102A54"/>
<path d="M322.753 194.852H321.147C320.642 194.852 320.232 194.255 320.232 193.518V191.177C320.232 190.44 320.642 189.843 321.147 189.843H322.753C323.258 189.843 323.667 190.44 323.667 191.177V193.518C323.667 194.255 323.258 194.852 322.753 194.852Z" fill="#102A54"/>
<path d="M328.776 194.852H327.17C326.665 194.852 326.255 194.255 326.255 193.518V191.177C326.255 190.44 326.665 189.843 327.17 189.843H328.776C329.281 189.843 329.69 190.44 329.69 191.177V193.518C329.69 194.255 329.281 194.852 328.776 194.852Z" fill="#102A54"/>
<path d="M334.799 194.852H333.193C332.688 194.852 332.278 194.255 332.278 193.518V191.177C332.278 190.44 332.688 189.843 333.193 189.843H334.799C335.304 189.843 335.714 190.44 335.714 191.177V193.518C335.714 194.255 335.304 194.852 334.799 194.852Z" fill="#102A54"/>
<path d="M340.822 194.852H339.216C338.711 194.852 338.301 194.255 338.301 193.518V191.177C338.301 190.44 338.711 189.843 339.216 189.843H340.822C341.327 189.843 341.737 190.44 341.737 191.177V193.518C341.737 194.255 341.327 194.852 340.822 194.852Z" fill="#102A54"/>
<path d="M346.845 194.852H345.239C344.734 194.852 344.324 194.255 344.324 193.518V191.177C344.324 190.44 344.734 189.843 345.239 189.843H346.845C347.35 189.843 347.76 190.44 347.76 191.177V193.518C347.76 194.255 347.35 194.852 346.845 194.852Z" fill="#102A54"/>
<path d="M352.868 194.852H351.262C350.757 194.852 350.348 194.255 350.348 193.518V191.177C350.348 190.44 350.757 189.843 351.262 189.843H352.868C353.373 189.843 353.783 190.44 353.783 191.177V193.518C353.783 194.255 353.373 194.852 352.868 194.852Z" fill="#102A54"/>
<path d="M358.891 194.852H357.286C356.78 194.852 356.371 194.255 356.371 193.518V191.177C356.371 190.44 356.78 189.843 357.286 189.843H358.891C359.397 189.843 359.806 190.44 359.806 191.177V193.518C359.806 194.255 359.397 194.852 358.891 194.852Z" fill="#102A54"/>
<path d="M364.915 194.852H363.309C362.804 194.852 362.394 194.255 362.394 193.518V191.177C362.394 190.44 362.804 189.843 363.309 189.843H364.915C365.42 189.843 365.829 190.44 365.829 191.177V193.518C365.829 194.255 365.42 194.852 364.915 194.852Z" fill="#102A54"/>
<path d="M370.937 194.852H369.332C368.827 194.852 368.417 194.255 368.417 193.518V191.177C368.417 190.44 368.827 189.843 369.332 189.843H370.937C371.443 189.843 371.852 190.44 371.852 191.177V193.518C371.852 194.255 371.443 194.852 370.937 194.852Z" fill="#102A54"/>
<path d="M376.961 194.852H375.355C374.85 194.852 374.44 194.255 374.44 193.518V191.177C374.44 190.44 374.85 189.843 375.355 189.843H376.961C377.466 189.843 377.875 190.44 377.875 191.177V193.518C377.875 194.255 377.466 194.852 376.961 194.852Z" fill="#102A54"/>
<path d="M382.984 194.852H381.378C380.873 194.852 380.463 194.255 380.463 193.518V191.177C380.463 190.44 380.873 189.843 381.378 189.843H382.984C383.489 189.843 383.898 190.44 383.898 191.177V193.518C383.898 194.255 383.489 194.852 382.984 194.852Z" fill="#102A54"/>
<path d="M389.007 194.852H387.401C386.896 194.852 386.486 194.255 386.486 193.518V191.177C386.486 190.44 386.896 189.843 387.401 189.843H389.007C389.512 189.843 389.922 190.44 389.922 191.177V193.518C389.922 194.255 389.512 194.852 389.007 194.852Z" fill="#102A54"/>
<path d="M395.03 194.852H393.424C392.919 194.852 392.51 194.255 392.51 193.518V191.177C392.51 190.44 392.919 189.843 393.424 189.843H395.03C395.535 189.843 395.945 190.44 395.945 191.177V193.518C395.945 194.255 395.535 194.852 395.03 194.852Z" fill="#102A54"/>
<path d="M401.053 194.852H399.447C398.942 194.852 398.532 194.255 398.532 193.518V191.177C398.532 190.44 398.942 189.843 399.447 189.843H401.053C401.558 189.843 401.968 190.44 401.968 191.177V193.518C401.968 194.255 401.558 194.852 401.053 194.852Z" fill="#102A54"/>
<path d="M407.076 194.852H405.47C404.965 194.852 404.556 194.255 404.556 193.518V191.177C404.556 190.44 404.965 189.843 405.47 189.843H407.076C407.581 189.843 407.991 190.44 407.991 191.177V193.518C407.991 194.255 407.581 194.852 407.076 194.852Z" fill="#102A54"/>
<path d="M413.099 194.852H411.494C410.988 194.852 410.579 194.255 410.579 193.518V191.177C410.579 190.44 410.988 189.843 411.494 189.843H413.099C413.605 189.843 414.014 190.44 414.014 191.177V193.518C414.014 194.255 413.604 194.852 413.099 194.852Z" fill="#102A54"/>
<path d="M419.122 194.852H417.517C417.011 194.852 416.602 194.255 416.602 193.518V191.177C416.602 190.44 417.011 189.843 417.517 189.843H419.122C419.628 189.843 420.037 190.44 420.037 191.177V193.518C420.037 194.255 419.628 194.852 419.122 194.852Z" fill="#102A54"/>
<path d="M425.145 194.852H423.54C423.035 194.852 422.625 194.255 422.625 193.518V191.177C422.625 190.44 423.035 189.843 423.54 189.843H425.145C425.651 189.843 426.06 190.44 426.06 191.177V193.518C426.06 194.255 425.651 194.852 425.145 194.852Z" fill="#102A54"/>
<path d="M431.169 194.852H429.563C429.058 194.852 428.648 194.255 428.648 193.518V191.177C428.648 190.44 429.058 189.843 429.563 189.843H431.169C431.674 189.843 432.083 190.44 432.083 191.177V193.518C432.083 194.255 431.674 194.852 431.169 194.852Z" fill="#102A54"/>
<path d="M437.192 194.852H435.586C435.081 194.852 434.671 194.255 434.671 193.518V191.177C434.671 190.44 435.081 189.843 435.586 189.843H437.192C437.697 189.843 438.107 190.44 438.107 191.177V193.518C438.107 194.255 437.697 194.852 437.192 194.852Z" fill="#102A54"/>
<path d="M443.215 194.852H441.609C441.104 194.852 440.694 194.255 440.694 193.518V191.177C440.694 190.44 441.104 189.843 441.609 189.843H443.215C443.72 189.843 444.13 190.44 444.13 191.177V193.518C444.13 194.255 443.72 194.852 443.215 194.852Z" fill="#102A54"/>
<path d="M130.766 430.497H127.058H117.477C116.883 430.497 116.457 431.332 116.627 432.161L122.441 460.478C122.554 461.025 122.899 461.4 123.29 461.4H127.058H130.766H134.534C134.926 461.4 135.271 461.025 135.384 460.478L141.198 432.161C141.368 431.332 140.942 430.497 140.348 430.497H130.766Z" fill="#102A54"/>
<path d="M138.278 416.699C138.644 415.29 139.117 413.884 139.908 412.915C140.699 411.947 141.874 411.517 142.788 412.219C143.46 412.735 144.155 413.826 144.818 413.287C145.231 412.952 145.322 412.157 145.35 411.47C145.442 409.228 145.423 406.701 146.519 405.123C147.598 403.569 149.345 403.6 150.815 404.147C151.508 404.405 152.276 404.744 152.907 404.253C153.245 403.991 153.486 403.525 153.685 403.049C154.39 401.371 154.837 399.22 156.069 398.419C158.052 397.129 160.364 400.392 162.404 399.305C163.202 398.88 163.884 397.81 164.73 397.927C165.148 397.985 165.523 398.34 165.813 398.783C166.797 400.286 166.807 402.924 165.828 404.433C164.526 406.438 162.138 406.158 160.822 408.142C159.557 410.049 159.661 413.508 158.118 414.912C156.819 416.095 155.065 415.125 153.621 415.871C152.462 416.47 151.705 418.05 150.955 419.469C150.205 420.889 149.251 422.336 148.024 422.447C147.38 422.505 146.738 422.177 146.096 422.263C144.246 422.509 143.216 425.917 141.38 426.321C140.148 426.592 139.093 425.395 138.24 424.254C137.901 423.801 137.585 423.289 137.462 422.627C137.316 421.832 137.438 420.969 137.559 420.185C137.742 419 137.983 417.834 138.278 416.699Z" fill="#6CB597"/>
<path d="M125.016 411.11C124.009 410.018 123.399 407.913 123.994 406.302C124.284 405.517 124.802 404.975 125.21 404.312C125.619 403.649 125.931 402.7 125.689 401.882C125.569 401.476 125.333 401.173 125.104 400.884C124.278 399.842 123.442 398.758 122.922 397.357C122.403 395.957 122.256 394.154 122.831 392.8C123.264 391.778 124.023 391.17 124.681 390.447C125.339 389.724 125.964 388.692 125.909 387.492C125.841 385.997 124.735 384.638 125.146 383.264C125.572 381.842 127.272 381.92 127.55 380.422C127.688 379.677 127.38 378.931 127.253 378.182C126.971 376.514 127.745 374.62 128.886 374.189C130.027 373.758 131.335 374.866 131.643 376.525C131.856 377.674 131.64 378.95 131.952 380.05C132.356 381.476 133.515 382.159 134.023 383.514C134.957 386.007 133.26 388.959 133.402 391.792C133.553 394.787 135.747 397.336 135.182 400.224C134.96 401.355 134.337 402.25 134.121 403.383C133.864 404.735 134.225 406.149 134.484 407.5C134.743 408.852 134.866 410.452 134.245 411.523C133.785 412.316 133.037 412.595 132.333 412.754C130.383 413.198 128.445 413.068 126.557 412.207C126.01 411.957 125.479 411.612 125.016 411.11Z" fill="#6CB597"/>
<path d="M128.868 437.619C128.823 437.619 128.778 437.601 128.737 437.564C128.62 437.458 128.584 437.235 128.657 437.065C130.448 432.869 132.671 429.127 135.263 425.942C138.12 422.433 141.387 419.663 144.546 416.984L166.005 398.789C166.123 398.687 166.275 398.746 166.344 398.919C166.414 399.093 166.373 399.315 166.254 399.415L144.796 417.611C141.655 420.274 138.407 423.028 135.584 426.496C133.031 429.632 130.843 433.316 129.079 437.448C129.032 437.558 128.951 437.619 128.868 437.619Z" fill="#102A54"/>
<path d="M129.557 436.074C129.423 436.074 129.312 435.919 129.308 435.723C128.941 417.525 129.215 392.543 129.51 374.79C129.513 374.59 129.625 374.433 129.765 374.436C129.902 374.441 130.01 374.608 130.007 374.808C129.713 392.552 129.438 417.519 129.805 435.701C129.81 435.901 129.702 436.068 129.564 436.074C129.562 436.074 129.559 436.074 129.557 436.074Z" fill="#102A54"/>
<path d="M117.184 426.26C115.735 426.032 114.265 424.631 114.004 422.54C113.797 420.872 114.265 418.725 113.315 417.746C112.982 417.402 112.555 417.33 112.147 417.302C110.673 417.2 109.058 417.481 107.854 416.237C106.102 414.428 106.277 410.675 106.134 407.552C106.098 406.75 106.006 405.883 105.608 405.327C105.183 404.733 104.542 404.667 103.968 404.478C101.877 403.788 100.243 400.839 100.221 397.712C100.214 396.756 100.359 395.752 100.795 395.039C101.092 394.554 101.502 394.24 101.928 394.049C103.287 393.44 104.872 394.102 105.805 395.667C106.387 396.645 106.722 397.918 107.378 398.79C109.233 401.257 112.28 399.231 114.665 400.369C115.999 401.005 117.066 402.716 117.373 404.714C117.64 406.447 117.381 408.374 117.963 409.935C118.961 412.615 121.579 412.464 123.508 413.643C123.973 413.926 124.427 414.328 124.69 414.953C124.893 415.438 124.964 416.015 124.996 416.581C125.126 418.867 124.63 421.19 123.701 423.03C123.285 423.854 122.728 424.809 122.07 425.229C121.57 425.548 120.983 425.432 120.457 425.617C119.366 426 118.32 426.439 117.184 426.26Z" fill="#6CB597"/>
<path d="M128.244 438.139C128.155 438.139 128.07 438.07 128.025 437.947C124.592 428.584 117.161 416.219 113.59 410.276C112.52 408.495 111.413 406.653 110.123 405.167C109.063 403.945 107.841 402.917 106.659 401.923C104.491 400.098 102.248 398.212 100.915 395.054C100.843 394.884 100.879 394.66 100.996 394.555C101.113 394.451 101.266 394.504 101.338 394.674C102.606 397.676 104.695 399.433 106.908 401.294C108.105 402.302 109.343 403.343 110.432 404.598C111.757 406.124 112.879 407.992 113.964 409.798C117.547 415.761 125.004 428.169 128.463 437.605C128.528 437.781 128.482 438.001 128.361 438.096C128.324 438.125 128.284 438.139 128.244 438.139Z" fill="#102A54"/>
<path d="M430.452 259.83C430.452 259.83 419.158 290.705 417.345 293.195C415.532 295.685 389.94 305.957 389.94 305.957L390.95 311.365C390.95 311.365 422.652 312.438 424.267 311.365C425.881 310.293 435.187 298.245 435.187 298.245L430.452 259.83Z" fill="#3C94F8"/>
<path d="M414.856 445.036L415.63 451.82H421.515L421.176 444.051L414.856 445.036Z" fill="#FFC0B1"/>
<path d="M393.688 443.668L394.011 452.906L399.264 452.314L400.044 443.736L393.688 443.668Z" fill="#FFC0B1"/>
<path d="M439.198 332.001C439.198 332.001 401.819 350.248 396.248 358.374C390.676 366.499 392.89 443.99 392.89 443.99H400.884L412.139 380.224C412.139 380.224 457.444 378.757 462.341 366.211C468.801 349.661 463.869 328.115 463.869 328.115L439.198 332.001Z" fill="#0C203F"/>
<path d="M441.491 336.296C441.491 336.296 410.407 362.698 406.46 371.464C402.513 380.23 414.284 445.125 414.284 445.125L421.565 443.99L423.436 386.698C423.436 386.698 463.734 373.149 466.516 360.616C470.187 344.082 463.043 326.16 463.043 326.16L441.491 336.296Z" fill="#102A54"/>
<path d="M400.143 450.52C400.143 450.52 395.384 452.448 393.181 450.52L383.648 457.781C382.357 458.765 381.548 460.713 381.548 462.836V462.986H400.304C400.87 462.986 401.304 462.255 401.223 461.439L400.143 450.52Z" fill="#0C203F"/>
<path d="M421.775 450.52C421.775 450.52 417.016 452.448 414.813 450.52L405.281 457.781C403.99 458.765 403.181 460.713 403.181 462.836V462.986H421.937C422.503 462.986 422.937 462.255 422.856 461.439L421.775 450.52Z" fill="#102A54"/>
<path d="M439.616 251.575L436.027 230.25L436.027 230.252C436.022 226.231 435.482 221.426 434.11 215.792C433.201 212.059 430.283 210.279 427.813 211.928L420.855 216.576C418.96 217.841 417.946 220.889 418.441 223.841C419.027 227.34 419.726 231.897 419.95 234.946C420.145 237.609 420.65 240.713 421.855 243.02C423.962 247.057 427.675 248.428 430.73 246.385L431.597 260.222L439.616 251.575Z" fill="#FFC0B1"/>
<path d="M422.417 233.61C422.197 233.61 421.985 233.49 421.82 233.266C421.617 232.991 421.515 232.601 421.542 232.198L422.096 223.915C422.107 223.755 422.206 223.637 422.315 223.653C422.425 223.668 422.505 223.811 422.495 223.971L421.941 232.255C421.926 232.475 421.981 232.687 422.092 232.838C422.204 232.988 422.354 233.053 422.503 233.015L424.233 232.574C424.343 232.547 424.445 232.653 424.464 232.811C424.484 232.97 424.411 233.121 424.302 233.149L422.572 233.59C422.52 233.603 422.468 233.61 422.417 233.61Z" fill="#102A54"/>
<path d="M426.641 233.592C426.641 233.592 424.528 236.399 421.823 237.395C421.823 237.395 425.751 240.891 426.641 233.592Z" fill="white"/>
<path d="M423.329 236.93C423.25 236.93 423.176 236.862 423.144 236.749C423.102 236.6 423.15 236.429 423.253 236.368C425.362 235.1 426.634 233.004 426.647 232.983C426.72 232.862 426.846 232.849 426.929 232.955C427.012 233.061 427.021 233.245 426.948 233.367C426.894 233.457 425.605 235.585 423.405 236.908C423.38 236.923 423.354 236.93 423.329 236.93Z" fill="#102A54"/>
<path d="M420.968 225.504C420.968 226.198 420.657 226.761 420.273 226.761C419.89 226.761 419.579 226.198 419.579 225.504C419.579 224.809 419.89 224.246 420.273 224.246C420.657 224.246 420.968 224.809 420.968 225.504Z" fill="#102A54"/>
<path d="M424.927 224.699C425.31 224.699 425.621 224.136 425.621 223.441C425.621 222.747 425.31 222.184 424.927 222.184C424.543 222.184 424.232 222.747 424.232 223.441C424.232 224.136 424.543 224.699 424.927 224.699Z" fill="#102A54"/>
<path d="M418.316 220.945C418.316 220.945 426.006 221.884 429.371 218.126C429.371 218.126 429.443 225.582 430.66 226.761C431.877 227.94 435.609 226.741 436.773 234.276C436.773 234.276 438.821 226.061 437.891 216.455C436.96 206.85 432.807 202.256 428.798 202.778C424.789 203.3 410.003 211.311 418.316 220.945Z" fill="#102A54"/>
<path d="M434.926 224.934C435.385 222.134 434.845 219.546 433.719 219.153C432.593 218.76 431.308 220.712 430.848 223.512C430.389 226.312 430.929 228.9 432.055 229.293C433.181 229.686 434.467 227.734 434.926 224.934Z" fill="#FFC0B1"/>
<path d="M431.932 226.395C431.826 226.395 431.737 226.273 431.732 226.117C431.624 222.814 433.436 220.111 433.513 219.997C433.591 219.883 433.717 219.882 433.796 219.995C433.874 220.109 433.875 220.294 433.797 220.408C433.779 220.434 432.032 223.046 432.132 226.089C432.138 226.25 432.052 226.387 431.942 226.395C431.939 226.395 431.935 226.395 431.932 226.395Z" fill="#102A54"/>
<path d="M439.622 248.411C439.622 248.411 461.894 262.115 465.964 332.879C465.964 332.879 456.363 341.37 432.869 336.44C432.869 336.44 433.499 328.796 433.279 325.655C433.059 322.515 426.078 274.529 430.452 259.829L439.622 248.411Z" fill="#3C94F8"/>
<path d="M430.73 246.677C430.652 246.677 430.578 246.61 430.546 246.499C430.503 246.35 430.551 246.179 430.652 246.117C430.684 246.097 432.901 244.659 434.174 239.607C434.212 239.455 434.327 239.378 434.431 239.433C434.535 239.489 434.588 239.657 434.55 239.808C433.21 245.126 430.905 246.595 430.808 246.655C430.782 246.67 430.756 246.677 430.73 246.677Z" fill="#102A54"/>
<path d="M439.049 264.911C439.049 264.911 432.051 291.024 429.977 295.006C427.904 298.988 396.281 306.485 396.281 306.485L398.15 313.981C398.15 313.981 430.583 316.707 434.54 313.981C438.497 311.255 447.376 301.941 449.868 288.765C452.361 275.589 446.923 259.005 439.049 264.911Z" fill="#3C94F8"/>
<path d="M423.264 315.49C412.797 315.49 399.01 314.346 398.138 314.273C398.028 314.264 397.944 314.126 397.95 313.965C397.956 313.804 398.047 313.682 398.161 313.69C398.485 313.717 430.588 316.381 434.454 313.718C437.808 311.407 447.08 302.406 449.675 288.687C449.704 288.532 449.816 288.441 449.922 288.484C450.028 288.527 450.091 288.687 450.061 288.843C447.426 302.774 438.025 311.903 434.625 314.246C433.269 315.18 428.717 315.49 423.264 315.49Z" fill="#102A54"/>
<path d="M396.281 306.777C396.184 306.777 396.099 306.675 396.083 306.532C396.065 306.372 396.139 306.223 396.249 306.197C407.159 303.61 428.216 297.906 429.818 294.829C431.851 290.925 438.793 265.066 438.862 264.805C438.903 264.655 439.019 264.581 439.122 264.639C439.225 264.698 439.275 264.867 439.235 265.018C438.949 266.085 432.203 291.214 430.137 295.182C428.039 299.211 397.607 306.466 396.313 306.773C396.302 306.776 396.291 306.777 396.281 306.777Z" fill="#102A54"/>
<path d="M430.73 293.501C430.624 293.501 430.535 293.379 430.53 293.223C430.524 293.019 429.869 272.678 430.532 264.876C430.545 264.716 430.645 264.603 430.755 264.622C430.865 264.641 430.943 264.787 430.929 264.947C430.271 272.701 430.924 292.991 430.93 293.195C430.936 293.356 430.85 293.493 430.74 293.501C430.737 293.501 430.733 293.501 430.73 293.501Z" fill="#102A54"/>
<path d="M396.866 307.742C396.866 307.742 393.047 306.452 391.385 307.404C390.785 307.748 384.049 315.676 384.049 315.676H385.602H394.001L397.852 312.786L396.866 307.742Z" fill="#FFC0B1"/>
<path d="M390.145 307.054C390.145 307.054 386.965 306.705 385.932 307.054C384.899 307.404 379.61 310.928 379.61 311.365C379.61 311.802 380.147 312.405 380.85 312.164C381.552 311.923 387.502 309.559 387.502 309.559C387.502 309.559 384.114 311.983 383.618 313.007C383.122 314.031 382.668 315.676 382.668 315.676H388.907L390.95 311.365L390.145 307.054Z" fill="#FFC0B1"/>
<path d="M384.311 315.927C384.294 315.927 384.277 315.923 384.26 315.915C384.169 315.874 384.119 315.734 384.147 315.602C384.155 315.565 384.349 314.683 384.95 313.807C385.532 312.958 390.104 308.382 390.298 308.187C390.376 308.109 390.483 308.138 390.536 308.252C390.59 308.366 390.57 308.521 390.492 308.6C390.445 308.647 385.752 313.344 385.192 314.161C384.651 314.951 384.476 315.743 384.474 315.751C384.452 315.858 384.384 315.927 384.311 315.927Z" fill="#102A54"/>
<path d="M447.625 383.734L434.54 462.986H435.626L452.296 383.309L447.625 383.734Z" fill="#102A54"/>
<path d="M466.008 383.734L479.094 462.986H478.008L461.338 383.309L466.008 383.734Z" fill="#102A54"/>
<path d="M436.184 380.518C436.184 380.518 455.398 366.412 464.551 345.313C469.353 334.246 469.914 305.302 473.877 304.858C477.84 304.413 481.498 313.749 482.718 323.974C483.937 334.199 483.937 373.489 475.096 380.518C466.256 387.547 435.685 390.659 433.594 389.326C431.503 387.992 430.806 385.048 436.184 380.518Z" fill="#7FC0FF"/>
<path d="M444.608 323.59H308.668C307.811 323.59 307.117 322.578 307.117 321.328C307.117 320.079 307.811 319.066 308.668 319.066H444.608C445.464 319.066 446.159 320.079 446.159 321.328C446.159 322.578 445.464 323.59 444.608 323.59Z" fill="#7FC0FF"/>
<path d="M316.628 462.986H314.227L332.713 323.59H335.114L316.628 462.986Z" fill="#7FC0FF"/>
<path d="M436.648 462.986H439.049L420.563 323.59H418.162L436.648 462.986Z" fill="#7FC0FF"/>
<path d="M358.109 315.676L342.4 262.215C342.238 261.664 341.866 261.306 341.455 261.306C340.717 261.306 340.219 262.407 340.51 263.396L356.868 319.066H358.109H359.105H395.704C396.346 319.066 396.866 318.307 396.866 317.371C396.866 316.435 396.346 315.676 395.704 315.676H358.109Z" fill="#102A54"/>
<path d="M555.989 463.396H45.2624C44.8835 463.396 44.5767 462.948 44.5767 462.396C44.5767 461.844 44.8835 461.396 45.2624 461.396H555.989C556.368 461.396 556.675 461.844 556.675 462.396C556.675 462.948 556.368 463.396 555.989 463.396Z" fill="#102A54"/>
<path d="M258.757 269.488C258.757 255.413 250.933 244.002 241.281 244.002C231.629 244.002 223.804 255.413 223.804 269.488C223.804 277.13 226.112 283.986 229.764 288.657C230.083 281.318 233.626 275.256 238.351 273.453C236.174 271.878 234.677 268.605 234.677 264.821C234.677 259.503 237.634 255.191 241.281 255.191C244.928 255.191 247.885 259.502 247.885 264.821C247.885 268.606 246.387 271.878 244.21 273.453C248.936 275.256 252.478 281.317 252.797 288.657C256.45 283.986 258.757 277.13 258.757 269.488Z" fill="#80C0FF"/>
<path d="M244.21 273.453C246.387 271.878 247.885 268.605 247.885 264.821C247.885 259.503 244.928 255.191 241.281 255.191C237.633 255.191 234.677 259.502 234.677 264.821C234.677 268.606 236.174 271.878 238.351 273.453C233.625 275.256 230.083 281.318 229.764 288.657C232.84 292.59 236.869 294.975 241.281 294.975C245.693 294.975 249.722 292.59 252.797 288.657C252.478 281.317 248.936 275.256 244.21 273.453Z" fill="#3C94F8"/>
<path d="M429.739 99.9082C426.412 99.3337 423.396 102.801 423.002 107.653C423.396 102.801 421.018 98.4025 417.691 97.828C414.364 97.2535 411.348 100.721 410.954 105.573C410.908 106.133 410.901 106.687 410.927 107.23C411.056 121.898 421.361 127.872 421.361 127.872C421.361 127.872 432.337 125.572 434.811 111.354C434.923 110.834 435.005 110.293 435.05 109.733C435.444 104.881 433.066 100.482 429.739 99.9082Z" fill="#80C0FF"/>
</g>
<defs>
<clipPath id="clip0_12_43">
<rect width="600" height="500" fill="white"/>
</clipPath>
</defs>
</svg>
