<?xml version="1.0" encoding="UTF-8"?>
<svg xmlns="http://www.w3.org/2000/svg" xmlns:xlink="http://www.w3.org/1999/xlink" viewBox="0 0 600 500">
  <defs>
    <style>
      .cls-1 {
        fill: url(#linear-gradient-61);
      }

      .cls-2 {
        fill: url(#linear-gradient-15);
      }

      .cls-3 {
        fill: url(#linear-gradient-13);
      }

      .cls-4 {
        fill: url(#linear-gradient-28);
      }

      .cls-5 {
        fill: url(#linear-gradient-53);
      }

      .cls-6 {
        fill: url(#linear-gradient-42);
      }

      .cls-7 {
        fill: url(#linear-gradient-46);
      }

      .cls-8 {
        fill: url(#linear-gradient-60);
      }

      .cls-9 {
        stroke-width: .75px;
      }

      .cls-9, .cls-10, .cls-11, .cls-12, .cls-13, .cls-14, .cls-15, .cls-16, .cls-17, .cls-18, .cls-19 {
        fill: none;
      }

      .cls-9, .cls-10, .cls-13, .cls-15, .cls-16, .cls-17, .cls-18, .cls-19, .cls-20 {
        stroke-linecap: round;
      }

      .cls-9, .cls-10, .cls-14, .cls-16, .cls-17, .cls-18, .cls-19 {
        stroke: #000;
      }

      .cls-9, .cls-15, .cls-17, .cls-18, .cls-19, .cls-20 {
        stroke-linejoin: round;
      }

      .cls-21 {
        fill: url(#linear-gradient-2);
      }

      .cls-10, .cls-22, .cls-11, .cls-13, .cls-14, .cls-16 {
        stroke-miterlimit: 10;
      }

      .cls-10, .cls-22, .cls-15, .cls-17, .cls-20 {
        stroke-width: .5px;
      }

      .cls-23 {
        fill: url(#linear-gradient-56);
      }

      .cls-24 {
        fill: url(#linear-gradient-43);
      }

      .cls-25 {
        fill: url(#linear-gradient-25);
      }

      .cls-26 {
        fill: url(#linear-gradient-10);
      }

      .cls-27 {
        fill: url(#linear-gradient-12);
      }

      .cls-28 {
        fill: url(#linear-gradient-40);
      }

      .cls-29 {
        fill: url(#linear-gradient-27);
      }

      .cls-30 {
        fill: url(#linear-gradient-20);
      }

      .cls-30, .cls-31, .cls-32 {
        mix-blend-mode: multiply;
      }

      .cls-33 {
        fill: url(#linear-gradient-37);
      }

      .cls-34 {
        fill: url(#linear-gradient-55);
      }

      .cls-35, .cls-22, .cls-20 {
        fill: #fff;
      }

      .cls-36 {
        fill: url(#linear-gradient-39);
      }

      .cls-37 {
        fill: url(#linear-gradient-52);
      }

      .cls-22 {
        stroke: url(#linear-gradient-3);
      }

      .cls-38 {
        fill: url(#linear-gradient-58);
      }

      .cls-11, .cls-15 {
        stroke: #fff;
      }

      .cls-39 {
        fill: url(#linear-gradient-47);
      }

      .cls-40 {
        fill: url(#linear-gradient-26);
      }

      .cls-13 {
        stroke: url(#linear-gradient-5);
      }

      .cls-13, .cls-14 {
        stroke-width: 2px;
      }

      .cls-41 {
        fill: url(#linear-gradient-35);
      }

      .cls-42 {
        fill: url(#linear-gradient-30);
      }

      .cls-43 {
        fill: url(#linear-gradient-44);
      }

      .cls-44 {
        fill: url(#linear-gradient-34);
      }

      .cls-45 {
        fill: url(#linear-gradient-38);
      }

      .cls-46 {
        fill: url(#linear-gradient-22);
      }

      .cls-47 {
        fill: url(#linear-gradient-24);
      }

      .cls-48 {
        fill: url(#linear-gradient-54);
      }

      .cls-49 {
        isolation: isolate;
      }

      .cls-50 {
        fill: #29394a;
      }

      .cls-51 {
        fill: url(#linear-gradient-33);
      }

      .cls-31 {
        fill: url(#linear-gradient-29);
      }

      .cls-52 {
        fill: url(#linear-gradient-51);
      }

      .cls-53 {
        fill: url(#linear-gradient-8);
      }

      .cls-54 {
        fill: url(#linear-gradient-57);
      }

      .cls-55 {
        fill: url(#linear-gradient-14);
      }

      .cls-56 {
        fill: url(#linear-gradient-62);
      }

      .cls-57 {
        opacity: .2;
      }

      .cls-32 {
        fill: url(#linear-gradient-49);
      }

      .cls-58 {
        fill: url(#linear-gradient-17);
      }

      .cls-59 {
        fill: url(#linear-gradient-50);
      }

      .cls-60 {
        fill: url(#linear-gradient-7);
      }

      .cls-61 {
        fill: url(#linear-gradient-9);
      }

      .cls-62 {
        fill: url(#linear-gradient-59);
      }

      .cls-63 {
        fill: url(#linear-gradient-11);
      }

      .cls-64 {
        fill: url(#linear-gradient-19);
      }

      .cls-65 {
        fill: url(#linear-gradient-6);
      }

      .cls-18 {
        stroke-width: .37px;
      }

      .cls-66 {
        fill: url(#linear-gradient-36);
      }

      .cls-67 {
        fill: url(#linear-gradient-21);
      }

      .cls-68 {
        fill: url(#linear-gradient-45);
      }

      .cls-69 {
        fill: url(#linear-gradient-48);
      }

      .cls-70 {
        fill: url(#linear-gradient-32);
      }

      .cls-71 {
        fill: url(#linear-gradient-41);
      }

      .cls-19 {
        stroke-width: .4px;
      }

      .cls-72 {
        fill: url(#linear-gradient-16);
      }

      .cls-73 {
        fill: url(#linear-gradient);
      }

      .cls-74 {
        fill: url(#linear-gradient-23);
      }

      .cls-75 {
        fill: url(#linear-gradient-31);
      }

      .cls-76 {
        clip-path: url(#clippath);
      }

      .cls-20 {
        stroke: url(#linear-gradient-4);
      }

      .cls-77 {
        fill: url(#linear-gradient-18);
      }
    </style>
    <linearGradient id="linear-gradient" x1="449.58" y1="255" x2="449.58" y2="661.12" gradientUnits="userSpaceOnUse">
      <stop offset="0" stop-color="#8ab9fd" stop-opacity=".2"/>
      <stop offset="1" stop-color="#0056e9"/>
    </linearGradient>
    <linearGradient id="linear-gradient-2" x1="329.94" y1="273.3" x2="329.94" y2="1213.34" gradientUnits="userSpaceOnUse">
      <stop offset="0" stop-color="#5fa3fa"/>
      <stop offset="1" stop-color="#3768ee"/>
    </linearGradient>
    <linearGradient id="linear-gradient-3" x1="-97.09" y1="155.09" x2="-29.29" y2="155.09" gradientTransform="translate(278.6 310.18) scale(1 -1)" gradientUnits="userSpaceOnUse">
      <stop offset="0" stop-color="#7695db"/>
      <stop offset="1" stop-color="#5873ec"/>
    </linearGradient>
    <linearGradient id="linear-gradient-4" x1="-96.31" y1="179.8" x2="-70.54" y2="179.8" gradientTransform="translate(152.22) rotate(-180) scale(1 -1)" xlink:href="#linear-gradient-3"/>
    <linearGradient id="linear-gradient-5" x1="-93.41" y1="155.58" x2="-34.48" y2="155.58" gradientTransform="translate(152.22) rotate(-180) scale(1 -1)" xlink:href="#linear-gradient-3"/>
    <linearGradient id="linear-gradient-6" x1="181.48" y1="384.57" x2="192.45" y2="408.06" gradientUnits="userSpaceOnUse">
      <stop offset="0" stop-color="#ffd2b6"/>
      <stop offset="1" stop-color="#ffb793"/>
    </linearGradient>
    <linearGradient id="linear-gradient-7" x1="163.98" y1="261.13" x2="163.98" y2="392.24" xlink:href="#linear-gradient-2"/>
    <linearGradient id="linear-gradient-8" x1="168.81" y1="393.07" x2="168.3" y2="422.18" xlink:href="#linear-gradient-6"/>
    <linearGradient id="linear-gradient-9" x1="171.31" y1="261.1" x2="171.31" y2="393.11" xlink:href="#linear-gradient-2"/>
    <linearGradient id="linear-gradient-10" x1="119.96" y1="179.56" x2="116.51" y2="235.86" xlink:href="#linear-gradient-6"/>
    <linearGradient id="linear-gradient-11" x1="135.98" y1="209.68" x2="133.8" y2="264.72" xlink:href="#linear-gradient-2"/>
    <linearGradient id="linear-gradient-12" x1="124.11" y1="179.81" x2="120.67" y2="236.11" xlink:href="#linear-gradient-6"/>
    <linearGradient id="linear-gradient-13" x1="119.45" y1="198.38" x2="119.45" y2="189.92" gradientUnits="userSpaceOnUse">
      <stop offset="0" stop-color="#be1e2b"/>
      <stop offset="1" stop-color="#d3535c"/>
    </linearGradient>
    <linearGradient id="linear-gradient-14" x1="131.51" y1="198.58" x2="131.51" y2="188.64" xlink:href="#linear-gradient-13"/>
    <linearGradient id="linear-gradient-15" x1="164.74" y1="210.73" x2="162.45" y2="268.68" xlink:href="#linear-gradient-2"/>
    <linearGradient id="linear-gradient-16" x1="164.89" y1="177.9" x2="162.31" y2="218.21" xlink:href="#linear-gradient-6"/>
    <linearGradient id="linear-gradient-17" x1="170.95" y1="178.29" x2="168.37" y2="218.6" xlink:href="#linear-gradient-6"/>
    <linearGradient id="linear-gradient-18" x1="185.55" y1="230.68" x2="181.52" y2="332.33" xlink:href="#linear-gradient-6"/>
    <linearGradient id="linear-gradient-19" x1="186.09" y1="211.28" x2="183.61" y2="273.77" xlink:href="#linear-gradient-2"/>
    <linearGradient id="linear-gradient-20" x1="169.72" y1="199.32" x2="159.57" y2="207.56" xlink:href="#linear-gradient-6"/>
    <linearGradient id="linear-gradient-21" x1="257.95" y1="404.9" x2="215.63" y2="426.54" gradientUnits="userSpaceOnUse">
      <stop offset="0" stop-color="#ffcbca"/>
      <stop offset="1" stop-color="#e994a8"/>
    </linearGradient>
    <linearGradient id="linear-gradient-22" x1="315.14" y1="413.64" x2="292.54" y2="430.3" xlink:href="#linear-gradient-21"/>
    <linearGradient id="linear-gradient-23" x1="283.12" y1="282.89" x2="270.68" y2="431.05" gradientUnits="userSpaceOnUse">
      <stop offset="0" stop-color="#3f2dd1"/>
      <stop offset="1" stop-color="#4b3ffa"/>
    </linearGradient>
    <linearGradient id="linear-gradient-24" x1="327.56" y1="185.75" x2="314.67" y2="238.73" xlink:href="#linear-gradient-21"/>
    <linearGradient id="linear-gradient-25" x1="287.72" y1="287.59" x2="279.14" y2="218.18" gradientUnits="userSpaceOnUse">
      <stop offset="0" stop-color="#ff9c00"/>
      <stop offset="1" stop-color="#ffca00"/>
    </linearGradient>
    <linearGradient id="linear-gradient-26" x1="276.28" y1="186.4" x2="275.01" y2="216.15" xlink:href="#linear-gradient-21"/>
    <linearGradient id="linear-gradient-27" x1="269.65" y1="217.77" x2="268.13" y2="233.33" xlink:href="#linear-gradient-25"/>
    <linearGradient id="linear-gradient-28" x1="281.02" y1="220.82" x2="283.79" y2="224.48" xlink:href="#linear-gradient-25"/>
    <linearGradient id="linear-gradient-29" x1="271.64" y1="208.54" x2="278.65" y2="208.54" xlink:href="#linear-gradient-21"/>
    <linearGradient id="linear-gradient-30" x1="241.31" y1="281.09" x2="241.31" y2="574.19" gradientTransform="translate(240.24 -292.36) rotate(19.96)" xlink:href="#linear-gradient-2"/>
    <linearGradient id="linear-gradient-31" x1="332.78" y1="226.08" x2="268.56" y2="253.78" xlink:href="#linear-gradient-21"/>
    <linearGradient id="linear-gradient-32" x1="265.18" y1="292.4" x2="256.35" y2="220.99" xlink:href="#linear-gradient-25"/>
    <linearGradient id="linear-gradient-33" x1="332.99" y1="187.07" x2="320.1" y2="240.05" xlink:href="#linear-gradient-21"/>
    <linearGradient id="linear-gradient-34" x1="228.83" y1="453.13" x2="228.83" y2="419.33" xlink:href="#linear-gradient-25"/>
    <linearGradient id="linear-gradient-35" x1="310.65" y1="453.13" x2="310.65" y2="424.79" xlink:href="#linear-gradient-25"/>
    <linearGradient id="linear-gradient-36" x1="429.64" y1="451.18" x2="452.5" y2="391.98" gradientTransform="translate(847) rotate(-180) scale(1 -1)" xlink:href="#linear-gradient-6"/>
    <linearGradient id="linear-gradient-37" x1="371.83" y1="441.01" x2="420.61" y2="441.01" xlink:href="#linear-gradient-23"/>
    <linearGradient id="linear-gradient-38" x1="355" y1="440.98" x2="377.95" y2="381.56" gradientTransform="translate(617.16 -114.46) rotate(153.65) scale(1 -1)" xlink:href="#linear-gradient-6"/>
    <linearGradient id="linear-gradient-39" x1="450.63" y1="437.18" x2="496.92" y2="437.18" xlink:href="#linear-gradient-23"/>
    <linearGradient id="linear-gradient-40" x1="438.84" y1="283.66" x2="438.84" y2="408.98" xlink:href="#linear-gradient-23"/>
    <linearGradient id="linear-gradient-41" x1="356.25" y1="251.65" x2="399.12" y2="251.65" xlink:href="#linear-gradient-6"/>
    <linearGradient id="linear-gradient-42" x1="394.68" y1="290.97" x2="394.68" y2="212.15" xlink:href="#linear-gradient-13"/>
    <linearGradient id="linear-gradient-43" x1="423.89" y1="290.62" x2="423.89" y2="212.09" xlink:href="#linear-gradient-13"/>
    <linearGradient id="linear-gradient-44" x1="454.21" y1="334.94" x2="454.21" y2="239.3" xlink:href="#linear-gradient-6"/>
    <linearGradient id="linear-gradient-45" x1="452.44" y1="295.48" x2="452.44" y2="205.17" gradientTransform="translate(-30.19 78.12) rotate(-9.03)" xlink:href="#linear-gradient-13"/>
    <linearGradient id="linear-gradient-46" x1="353.24" y1="244.12" x2="396.42" y2="244.12" xlink:href="#linear-gradient-23"/>
    <linearGradient id="linear-gradient-47" x1="368.68" y1="236.04" x2="350.67" y2="236.04" xlink:href="#linear-gradient-6"/>
    <linearGradient id="linear-gradient-48" x1="410.21" y1="197.86" x2="432.39" y2="197.86" xlink:href="#linear-gradient-6"/>
    <linearGradient id="linear-gradient-49" x1="425.84" y1="201.42" x2="419.66" y2="206.11" xlink:href="#linear-gradient-6"/>
    <linearGradient id="linear-gradient-50" x1="421.06" y1="214.75" x2="433.53" y2="214.75" xlink:href="#linear-gradient-13"/>
    <linearGradient id="linear-gradient-51" x1="418.42" y1="217.46" x2="414.68" y2="208.49" xlink:href="#linear-gradient-13"/>
    <linearGradient id="linear-gradient-52" x1="53.25" y1="75.69" x2="53.25" y2="483.62" gradientUnits="userSpaceOnUse">
      <stop offset="0" stop-color="#8ab9fd" stop-opacity=".3"/>
      <stop offset="1" stop-color="#0056e9"/>
    </linearGradient>
    <linearGradient id="linear-gradient-53" x1="131.96" y1="35.54" x2="131.96" y2="443.47" gradientUnits="userSpaceOnUse">
      <stop offset="0" stop-color="#8ab9fd"/>
      <stop offset="1" stop-color="#0056e9"/>
    </linearGradient>
    <linearGradient id="linear-gradient-54" x1="518.21" y1="35.54" x2="518.21" y2="443.47" xlink:href="#linear-gradient-53"/>
    <linearGradient id="linear-gradient-55" x1="464.77" y1="32.12" x2="464.77" y2="205.74" xlink:href="#linear-gradient-53"/>
    <linearGradient id="linear-gradient-56" x1="278.21" y1="22.32" x2="278.21" y2="430.25" xlink:href="#linear-gradient-53"/>
    <linearGradient id="linear-gradient-57" x1="496.91" y1="137.86" x2="496.91" y2="334.17" xlink:href="#linear-gradient-53"/>
    <linearGradient id="linear-gradient-58" x1="96.89" y1="48.89" x2="96.89" y2="245.2" xlink:href="#linear-gradient-53"/>
    <linearGradient id="linear-gradient-59" x1="519.16" y1="35.54" x2="519.16" y2="443.47" gradientTransform="translate(429.7 -252.1) rotate(45)" xlink:href="#linear-gradient-53"/>
    <linearGradient id="linear-gradient-60" x1="90.97" y1="372.96" x2="90.97" y2="327.12" gradientUnits="userSpaceOnUse">
      <stop offset="0" stop-color="#53b0b1"/>
      <stop offset="1" stop-color="#6acad8"/>
    </linearGradient>
    <clipPath id="clippath">
      <rect class="cls-12" x="75.89" y="379.34" width="40.83" height="73.44"/>
    </clipPath>
    <linearGradient id="linear-gradient-61" x1="105.49" y1="401.08" x2="101.75" y2="373.89" xlink:href="#linear-gradient-60"/>
    <linearGradient id="linear-gradient-62" x1="170.73" y1="255" x2="170.73" y2="661.12" xlink:href="#linear-gradient"/>
  </defs>
  <g class="cls-49">
    <g id="OBJECTS">
      <g>
        <g>
          <path class="cls-35" d="M539.59,288.52l-23.73-16.55c-1.43-1-3.4.03-3.4,1.77v10.05h-82.37c-14.29,0-25.92,11.63-25.92,25.92v59.53c0,7.12-5.8,12.92-12.92,12.92h-6.69c-14.29,0-25.92,11.63-25.92,25.92v44.7h13v-44.7c0-7.12,5.8-12.92,12.92-12.92h6.69c14.29,0,25.92-11.63,25.92-25.92v-59.53c0-7.12,5.8-12.92,12.92-12.92h82.37v10.05c0,1.75,1.97,2.77,3.4,1.77l23.73-16.55c1.23-.86,1.23-2.69,0-3.55Z"/>
          <path class="cls-73" d="M539.59,288.52l-23.73-16.55c-1.43-1-3.4.03-3.4,1.77v10.05h-82.37c-14.29,0-25.92,11.63-25.92,25.92v59.53c0,7.12-5.8,12.92-12.92,12.92h-6.69c-14.29,0-25.92,11.63-25.92,25.92v44.7h13v-44.7c0-7.12,5.8-12.92,12.92-12.92h6.69c14.29,0,25.92-11.63,25.92-25.92v-59.53c0-7.12,5.8-12.92,12.92-12.92h82.37v10.05c0,1.75,1.97,2.77,3.4,1.77l23.73-16.55c1.23-.86,1.23-2.69,0-3.55Z"/>
          <polygon points="512.46 296.79 512.46 289.13 507.98 296.79 512.46 296.79"/>
        </g>
        <g>
          <path class="cls-21" d="M365.25,291.15l-16.55-23.73c-.86-1.23-2.69-1.23-3.55,0l-16.55,23.73c-1,1.43.03,3.4,1.77,3.4h10.05v56.19c0,6.49-5.28,11.77-11.77,11.77h-9.65c-13.66,0-24.77,11.11-24.77,24.77v65.5h13v-65.5c0-6.49,5.28-11.77,11.77-11.77h9.65c13.66,0,24.77-11.11,24.77-24.77v-56.19h10.05c1.75,0,2.77-1.97,1.77-3.4Z"/>
          <polygon points="340.43 294.55 348.09 294.55 340.43 299.03 340.43 294.55"/>
        </g>
      </g>
      <g>
        <g>
          <rect class="cls-22" x="181.76" y="137.98" width="67.3" height="34.22" rx="8.37" ry="8.37" transform="translate(430.82 310.18) rotate(180)"/>
          <path class="cls-20" d="M234.88,169.39s-1.27,20.02,13.4,20.02c0,0-25.27,6.95-25.27-20.02"/>
          <path class="cls-13" d="M244.63,154.33s-4.66-6.31-8.98-5.77c-5.58.69,1.74,14.12-5.59,14.09-4.59-.02-8.2-10.31-12.42-9.98-4.35.34-.78,6.85-6.07,6.65-5.28-.2-9.59-10.7-13.7-10.78-4.11-.08-3.82,9.31-10.17,7.84"/>
        </g>
        <path d="M499.74,315c-5.69-5.69-14.91-5.69-20.59,0s-5.68,14.9,0,20.58c4.99,4.99,12.72,5.59,18.37,1.81l11.56,11.56c1.11,1.11,2.91,1.11,4.02,0h0c1.11-1.11,1.11-2.91,0-4.02l-11.57-11.57c3.79-5.66,3.19-13.38-1.8-18.37ZM496.84,332.7c-4.09,4.09-10.71,4.08-14.8,0s-4.09-10.71,0-14.8c4.09-4.09,10.72-4.09,14.81,0s4.09,10.72,0,14.81Z"/>
      </g>
      <g>
        <g>
          <polygon class="cls-65" points="191.32 385.08 173.05 388.64 187.81 413.11 203.07 408.69 191.32 385.08"/>
          <g>
            <path d="M212.65,410.31c1.61,2.33,9.11,15.82,9.11,15.82l-4.49,3.11-9.19-12.02s-2.61,4.54-1.92,9.93c.47,3.72,1.74,7.31.68,9.31-4.5,3.09-9.61,6.56-12.88,8.9-.57.41-1.87,0-2.38-.37-4.56-3.34.05-9.46,1.36-15.26.91-3.98-8.54-20.22-8.54-20.22l16.83-8.38s1.59,1.89,4.76,4.07c3.17,2.17,5.05,2.8,6.66,5.12Z"/>
            <path class="cls-15" d="M210.57,409.01s-5.92,5.99-6.54,13.44c-.52,6.25,2.02,11.15.82,13.33-4.57,3.16-12.43,8.6-12.43,8.6"/>
          </g>
          <path class="cls-60" d="M168.31,398.29c7.73-1.08,20.11-6.89,25.44-11.63l-21.76-46.89-12.41-68.57c-2.52.69-5.09,1.24-7.51,1.68h-.01c-6.61,1.19-12.04,1.5-12.04,1.5,0,0-1.18,10.29-2.86,22.56-1.89,13.83-4.2,30.06-2.17,34.65.78,1.77,33.32,66.7,33.32,66.7Z"/>
          <polygon class="cls-53" points="159.85 393.91 161.43 422.44 176.98 425.68 177.65 399.32 159.85 393.91"/>
          <g>
            <path d="M182.19,434.59c0,2.83-1.51,18.19-1.51,18.19h-5.46l-.72-15.11s-4.73,2.25-7.23,7.07c-1.73,3.33-2.73,7-4.73,8.04-5.46-.02-11.63-.07-15.65,0-.7.01-1.53-1.07-1.74-1.66-1.85-5.34,5.42-7.75,9.8-11.78,3.01-2.76,4.48-21.49,4.48-21.49l18.61,2.68s.23,2.46,1.6,6.06c1.37,3.59,2.56,5.17,2.56,8Z"/>
            <path class="cls-15" d="M181.23,432.34s-8.28,1.55-13.03,7.33c-3.98,4.84-4.68,10.32-6.91,11.43h-15.11"/>
          </g>
          <path class="cls-61" d="M154.94,400.15c7.57,3.09,23.08,3.58,30.2,1.91,0,0,3.24-105.63,2.41-116.28-.89-11.42-8.9-19.63-8.9-19.63-3.01,2.22-7.24,3.86-11.63,5.06-2.52.69-5.09,1.24-7.51,1.68h-.03s-4.2,117.58-4.2,117.58l-.34,9.7Z"/>
          <polyline class="cls-17" points="155.8 375.87 158.71 294.46 156.96 292.27"/>
          <path class="cls-17" d="M179.78,272.97s3.35,7.95,3.88,18.16c.53,10.22-3.88,107.86-3.88,107.86"/>
          <path d="M169.92,275.33c.36,3.06,2.42,13.06,13.78,16.14l-.22-2.65s-9.47-2.46-11.17-14.03c-.76.17-1.56.39-2.39.53Z"/>
        </g>
        <g>
          <path class="cls-26" d="M112.91,195.56s-12.93,35.31-9.13,39.66c4.13,4.72,26.55-1.65,26.55-1.65l-1.47-16.26-9.48,2.1s1.35-11.55,2.93-23.92"/>
          <path class="cls-63" d="M147.22,211.98l-23.38,5.93s1.51,12.05,5.58,19.47l17.47-4.64.33-20.76"/>
          <path d="M146.64,232.8l-8.66,2.31,5.47-10.43s1.57,4.12,3.19,8.12Z"/>
          <path class="cls-27" d="M132.39,185.38c-1.6-.27-7.06-2.01-8.04-1.44-.02.01-.34.23-.52.54-1.37-.5-2.94-1.11-3.49.09-2.19-.9-3.85-1.42-4.31-1.2-2.36,1.09-2.15,5.53-2.15,5.53,0,0,17.98-.31,18.79-.86.81-.55,1.32-2.39-.27-2.66Z"/>
          <path class="cls-19" d="M120.68,184.72s3.27,1.21,3.85,1.47c1.01.45.81,1.56-.36,2.33"/>
          <path class="cls-19" d="M124.18,184.64s4.58,1.75,5.16,2.01c1.01.45.81,1.56-.36,2.33"/>
          <g>
            <g>
              <path class="cls-3" d="M131.56,189.11l-22.45-1.99c-.14-.02-.29-.04-.43-.04-2.16,0-3.9,2.66-3.9,5.93s1.75,5.94,3.9,5.94c.15,0,.29-.01.43-.04l22.45-1.99c1.42,0,2.57-1.75,2.57-3.9s-1.15-3.9-2.57-3.9Z"/>
              <path class="cls-35" d="M111.95,193.01c0,2.75-1.46,4.97-3.27,4.97s-3.27-2.23-3.27-4.97,1.46-4.97,3.27-4.97,3.27,2.23,3.27,4.97Z"/>
            </g>
            <g>
              <path class="cls-55" d="M143.62,189.11l-22.45-1.99c-.14-.02-.29-.04-.43-.04-2.16,0-3.9,2.66-3.9,5.93s1.75,5.94,3.9,5.94c.15,0,.29-.01.43-.04l22.45-1.99c1.42,0,2.57-1.75,2.57-3.9s-1.15-3.9-2.57-3.9Z"/>
              <ellipse class="cls-35" cx="120.73" cy="193.01" rx="3.27" ry="4.97"/>
              <path class="cls-19" d="M137.91,188.52c1.63,0,2.95,2.01,2.95,4.49s-1.32,4.49-2.95,4.49"/>
            </g>
          </g>
        </g>
        <path d="M168.74,214.8l7.76,32.54s20.18-8.62.39-49.62l-5.89-.33c-.39,2.6-4.6,9.52-2.27,17.41Z"/>
        <path d="M149.88,179.96s-3.87,5.61-.06,11.84c0,0,1.82,3.27,2.82,8.88-6.07,12.83-3.17,24.33-3.17,24.33,0,0,8.84-6.71,12.04-7.99,3.2-1.28,1.71-19.14,1.71-19.14,0,0-1.58-10.02-1.88-11.01-.29-.99-6.1-8.75-6.1-8.75l-5.36,1.85Z"/>
        <path class="cls-2" d="M185.51,274.77c-7.24,5.79-38.56,5.74-46.29.78,1.77-9.74,4.97-25.08,5.46-28.7-1.81-3.43-4.01-6.49-4.26-9.83-.27-3.05,6.2-21.84,6.81-25.04l7.38-.98c6.84-.21,23.13,1.83,23.13,1.83l8.23,2.53s-2.17,21.31-3.92,36.17c1.78,10.94,1.9,16.55,3.48,23.24Z"/>
        <path class="cls-72" d="M170.94,210.77c-.04-2.39-.25-9.22.21-14.7,1.66-2.63,4.38-7.87,4.16-13.61-.3-8.19-20.41-16.55-24.37-5.43,0,0-2.76,10.45-1.65,18.81.6,4.62,2.37,8.59,6.45,9.82.98.29,2.34.14,3.85-.34-.17,1.89-.35,3.73-.49,4.97l-4.52.72c-.32,1.88-1.58,7.6,3.35,8.98,5.48,1.54,16.96-3.57,19.78-7.15,0,0-6.36-1.91-6.78-2.06Z"/>
        <path d="M176.98,188.42c1.85-3.7,2.41-8.5-3.41-10.99,0,0-1.62-7.34-10.45-7.15-12.61.27-20.32,8.58-14.84,17.46,0,0,12.53,3.05,16.1-3.94,0,0-1.44,7.82,6.96,7.66,0,0-.21,3.17-.3,5.93l5.84.33c-1.32-2.95-1.38-6.36.09-9.3Z"/>
        <path class="cls-58" d="M166.82,190.65s2.27-4.58,5.31-2.86c2.92,1.65.7,8.32-2.56,8.41"/>
        <path d="M174.86,231.05l1.3,17.38s1.66.45,4.47,0l-5.77-17.38Z"/>
        <path class="cls-77" d="M193.47,237.62s1.32,10.71,1.72,13.51c.76,5.28-14.69,36.37-14.69,36.37,0,0-4.7-1.86-7.33-9.04l6.9-26.25-2.34-11.69,15.74-2.9Z"/>
        <path class="cls-64" d="M185.96,215.36s4.1,1.35,4.9,4.9c.99,4.38,5.08,21.76,5.08,21.76-2.62,2.36-13.68,4.11-18.22,3.98,0,0-3.73-17.11-3.28-19.85,1.06-6.51,7.97-11.25,11.52-10.79Z"/>
        <path class="cls-30" d="M159.61,205.31s4.38-1.15,8.43-6.37c0,0-1.29,6.8-8.83,10.56l.41-4.19Z"/>
      </g>
      <g>
        <polygon class="cls-67" points="216.67 424.85 223.75 409.15 240.19 416.88 231.7 431.56 216.67 424.85"/>
        <polygon class="cls-46" points="292.12 434.04 292.12 413.68 310.65 419.01 309.89 434.43 292.12 434.04"/>
        <path class="cls-74" d="M304.33,273.94l19.51,75.03-1.19,76.41c-5.87,1.91-22.5,2.48-31.49-.33l1.31-73.72-9.94-32.15-1.41,1.15-4.18,38.25-29.76,67.05c-7.2-1.61-18.29-4.98-26.65-10.67l25.84-61.41s2.83-17.07,4.69-34.87c-.02-5.57-.21-10.64.73-17.05,1.73-11.76,4.66-17.01,4.66-17.01l47.86-10.67Z"/>
        <path class="cls-47" d="M309.44,221.94l7.27,3.67,11.3-25.26,7.28,2.51s-7.02,37.63-12.06,39.41c-4.74,1.68-20.78-4.21-20.78-4.21l6.99-16.12Z"/>
        <path class="cls-25" d="M255.11,221.1l-6.09,12.83c0,14.56,3.56,31.49,6.63,52.45,0,0,31.61,7.49,49.96-7.72l-7.71-40.79,5.22,2.97,9.57-17.71c-5.42-3.47-17.95-11.3-24.27-9.8l-33.32,7.78Z"/>
        <path class="cls-40" d="M265.89,202.31c-6.49-10.14-3.38-23.26,8.63-24.17,9.77-.74,12.22,5.59,13.58,11.22,0,0,2.1,8.88.55,15.27-.83,3.44-4.09,6.91-10.64,4.71l2.33,11.46c-3.32,1.99-13.85,1.37-15.92-1.78l2.2-15.71c-.25-.33-.51-.64-.73-.99Z"/>
        <path class="cls-35" d="M276.55,227.03s-.23,20-11.74,47.6l5.57,9.38,8.28-6.8s8.36-22.72,1.51-50.81"/>
        <path class="cls-35" d="M276.08,218.84l-3.08,5.76c.53.89,2.07,2.1,3.54,2.43l3.61-.62c.49-.59.9-1.92.91-2.67l-2.86-5.2-2.12.3Z"/>
        <path class="cls-29" d="M262.84,220.44l1.96-4.16c1.86.94,8.2,2.54,11.28,2.56l-3.08,7.31s-7.04-1.74-10.16-5.71Z"/>
        <path class="cls-4" d="M279.01,214.24s.21,2.69-.8,4.3l3.01,6.95s1.89-4.39.19-8.57l-2.4-2.68Z"/>
        <path d="M280.87,188.49c-5.24-.76-7.52-3.59-7.52-3.59,0,0,2.33,2.97,1.56,6.77-.4,1.95-1.42,2.79-1.42,2.79,0,0-2.7-3.67-5.01-2.14-3.46,2.29.65,8.29.65,8.29l-3.16,7.35s-19.53-14.62-5.74-24.96c0,0-1.35-5.73,4.53-9.13,5.88-3.4,13.43.36,17.94,1.85,5.7,1.89,9.83-.89,10.66,2.68.52,2.25-.45,11.82-12.48,10.08Z"/>
        <path class="cls-31" d="M278.01,209.34s-4.79-2.37-6.37-4.76c0,0-.23,5.07,7.01,7.91l-.64-3.15Z"/>
        <polygon points="281.11 320.32 282.49 309.41 290 304.55 283.82 309.57 282.52 319.17 281.11 320.32"/>
        <path class="cls-14" d="M272.53,290.64s-1.02,14.81-16.49,14.32"/>
        <path d="M251.87,244.81l-1.53,2.67s5.49,7.84,7.98,11c0,0,4.44-2.55,6.93-4.95,1.78-1.72-13.37-8.73-13.37-8.73Z"/>
        <path class="cls-42" d="M411.42,140.58c13.08-36.01-6.44-75.92-43.46-87.41-33.13-10.29-69.09,6.68-82.24,38.77-12.66,30.9-.76,65.25,25.97,82.35.93.59,1.34,1.74.96,2.77h0c-.46,1.25-.55,2.55-.33,3.77.64,3.59.09,7.29-1.15,10.72l-45.8,126.07c-1.78,4.89.75,10.29,5.63,12.06h0c4.89,1.78,10.29-.75,12.06-5.63l45.8-126.07c1.25-3.43,3.2-6.62,6-8.96.95-.8,1.71-1.85,2.17-3.1h0c.38-1.04,1.42-1.65,2.52-1.51,30.59,3.93,60.9-13.63,71.87-43.83ZM330.64,165.53c-26.49-9.62-40.16-38.9-30.54-65.39,9.62-26.49,38.9-40.16,65.39-30.54s40.16,38.9,30.54,65.39c-9.62,26.49-38.9,40.16-65.39,30.54Z"/>
        <circle class="cls-9" cx="348.06" cy="117.57" r="48.25"/>
        <g>
          <path class="cls-75" d="M319.93,231.6c-.77-1.32-2.33-2.61-2.33-2.61l-.93,2.55c-.51-.03-1.75-.27-2.43-.68,0,0,2.25-2.34,2.75-3.18,1.26-2.08.14-3.98-.56-3.95-.7.03-6.11,4.94-6.11,4.94h0c-.92.82-1.69,2.05-2.26,2.88-1.14,1.63-2.38,2.23-2.38,2.23-5.51,3-27.45,14.08-27.45,14.08l-9.16-9.01-11.24,11.43s14.38,12.58,22.36,13.16c8.59-3.92,22.4-15.29,28.36-20.26,0,0,6.23,1.13,7.69-.16.45-.39.73-1.12.88-1.59,1.16-.87,1.21-1.27,1.33-1.63.19-.55.02-1.71.02-1.71,0,0,1.07-.96,1.15-1.82.05-.53-.41-1.78-.41-1.78,0,0,.87-.75.99-1.11.16-.5.07-1.17-.29-1.79Z"/>
          <path class="cls-70" d="M257.9,255.21c2.3-1.49,12.88-9.64,15.1-13.37l-17.9-20.74s-10.33,2.51-11.11,12.12c-.79,9.72,13.91,21.99,13.91,21.99Z"/>
        </g>
        <path class="cls-51" d="M339.64,190.38c.08-1.01-.81-2.56-.81-2.56,0,0-4.45-6.58-4.86-7.24-.41-.66-1.54-.57-1.83.73,0,0-.01-.02-.02-.03-.65-1.28-2.59-1.27-2.29.9-.97-1.3-2.59-.64-2.17,1.93-.64-.56-2.02-.09-1.69,2.22.22,1.53,1.86,5.13,2.79,7.09-.13.3-.24.6-.3.88-.64,2.87-.45,6.05-.45,6.05l7.28,2.51s2.27-5.44,3.18-8.46h0s1.1-3.02,1.18-4.02Z"/>
        <g>
          <path class="cls-18" d="M332.35,181.69s3.64,5.27,4.28,6.35c.64,1.09.73,2.17.73,2.17"/>
          <path class="cls-18" d="M329.99,182.59s3.45,4.95,3.99,5.97c.54,1.02.8,2.49.8,2.49"/>
          <path class="cls-18" d="M328.01,184.5s2.39,3.64,3,4.6c.61.96.99,2.68.99,2.68"/>
        </g>
        <g>
          <path class="cls-44" d="M216.67,424.85l15.03,6.7,4.61,6.92s16.43-.98,15.37,14.31h-23.14l-22.6-12.32s2.9-7.34,4.5-10.34c1.99-3.75,5.03-4.53,6.22-5.27Z"/>
          <path d="M251.92,452.78h-23.38l-22.6-12.32c-.06-1.08.33-2.42,1.38-3.38l22.87,12.67h21.46c.57.44.79,2.1.28,3.03Z"/>
          <g>
            <path class="cls-17" d="M232.44,432.67s2.51-5.69,5.19-4.82c2.44.79.15,6.26-6.26,6.7,0,0,3.84-5.15,9.57-3.52,3.85,1.09,2.03,6.98-7.47,3.19"/>
            <path class="cls-17" d="M231.37,434.56s4.18,3.22,4.53,10.02"/>
            <path class="cls-17" d="M231.37,434.56s2.59,3.7.32,10.02"/>
          </g>
        </g>
        <g>
          <path class="cls-41" d="M292.12,434.04l17.77.39,6.89,7.34s16.91-2.28,16.91,11.01h-46.09s.32-11.14,1.56-14.3c.59-1.51,1.76-3.7,2.95-4.44Z"/>
          <path d="M333.7,452.78h-46.09s-.84-1.91.13-3.03h45.61c.62.62.62,1.74.35,3.03Z"/>
          <g>
            <path class="cls-17" d="M310.91,437.28s-.86-6.7,1.8-7.67c2.41-.88,3.97,4.84-.81,9.14,0,0-.15-6.42,5.37-8.66,3.71-1.51,5.9,4.25-3.92,7.11"/>
            <path class="cls-17" d="M311.9,438.75s5.28-.03,9.74,5.11"/>
            <path class="cls-17" d="M311.9,438.75s4.32,1.33,6.42,7.7"/>
          </g>
        </g>
      </g>
      <g>
        <path class="cls-66" d="M416.19,420.07l-.75,11.8c-1.17,11.08-14.09,9.19-17.09-2.13l.49-13.6,17.34,3.93Z"/>
        <path class="cls-33" d="M396.82,429.4c.81-.3,1.72-.11,2.43.37,1.01.68,2.77,2.03,4.71,4.18,2.37,2.63,7.47,2.64,9.04,1.45,1.57-1.19,2.44-3.53,2.44-3.53,0,0,2.33,1.75,3.47,4.64,1.14,2.89.49,8.21.49,8.21,0,0,1.07,2.15,1.19,3.8.16,2.04-1.82,4.2-3.81,4.23-3.98.06-25.14-.02-29.86,0-8.89.03-13.08-1.51-14.22-3.03s-1.23-7.05.07-7.92,6.25-2.07,11.03-3.65c4.51-1.49,9.34-3.19,10.7-5.03,1.08-1.48.78-3.16,2.31-3.72Z"/>
        <path d="M419.14,437.17c-.67-.94-1.58-1.02-2.95.01s-4.88,4.33-9.41,3.31-8.3-7.92-9.64-8.71c-1.21-.71-2.03.37-2.18.58.59-1.26.59-2.5,1.86-2.96.81-.3,1.72-.12,2.43.37,1.01.68,2.78,2.02,4.72,4.18,2.36,2.63,7.46,2.64,9.04,1.44,1.57-1.19,2.44-3.52,2.44-3.52,0,0,2.33,1.75,3.47,4.64.08.21.15.43.22.66Z"/>
        <path class="cls-45" d="M479.88,410.69l4.57,10.91c3.87,10.45-8.49,14.93-16.2,6.11l-5.66-12.84,17.29-4.18Z"/>
        <path class="cls-36" d="M494.92,439.7c-3.46,1.78-17.87,10.66-22.71,13.07h-16.98c-1.24,0-3.95-1.78-4.21-2.83-.75-2.99-.22-7.15.05-7.61.78-1.35,7.21-1.77,10.84-3.49,1.64-2.27,3.32-4.98,4.34-6.83.31-1.8-.71-3.17.42-4.35.6-.63,1.49-.87,2.35-.75,1.21.17,3.38.59,6.07,1.65,3.29,1.31,7.86-.95,8.74-2.72.88-1.76.63-4.24.63-4.24,0,0,2.86.54,5.17,2.62,2.3,2.09,4.08,7.14,4.08,7.14,0,0,1.91,1.46,2.75,2.88,1.05,1.75.24,4.56-1.53,5.47Z"/>
        <path d="M489.44,424.06c-2.61-.61-2.61,2.23-3.13,3.98-.96,3.19-3.64,4.85-7.91,4.36-4.28-.5-8.05-2.06-9.83-2.38-1.79-.32-2.28,1.52-2.28,1.52.1-1.58-.66-2.81.37-3.89.6-.63,1.49-.87,2.35-.75,1.21.16,3.38.58,6.07,1.65,3.29,1.31,7.86-.95,8.74-2.72.88-1.76.63-4.24.63-4.24,0,0,2.72.51,4.99,2.47Z"/>
        <path class="cls-28" d="M461.8,354.83c-3.45-20.13-4.85-30.89-6.77-43.34-1.4-12.61-3.43-22.47-7.85-28.82,0,0-45.22.78-45.22.6-.05.44-3.53,36.24-4.95,71.5-1.43,35.31-.8,70.09-.8,70.09,13.72,1.99,26.93.69,26.93.69,0,0,1.56-69.89,1.54-70.11,0,0,1.83-25.31,2.49-32.74,4.12,17.69,6.34,24.86,9,35.23,2.82,11.01,11.71,43.53,19.05,65.97,10.63-1.63,23.17-7.52,26.36-10.24-5.72-16.94-13.74-40.5-19.79-58.82Z"/>
        <polyline class="cls-17" points="423.34 307.17 419.23 359.94 417.48 420.81"/>
        <path class="cls-10" d="M455.33,419.01s12.83-2.39,23.74-8.71"/>
        <path class="cls-17" d="M442.4,284.01s6.13,12.35,7.15,23.33c1.02,10.98,7.28,48.26,7.28,48.26l17.65,57.1"/>
        <path class="cls-50" d="M407.01,291.17s0-.04,0-.04c0,0,0,.03,0,.04Z"/>
        <path class="cls-71" d="M399.12,248.3c-3.35-1.27-8.36-2.83-14.17-6.35-.85,2.03-3.54,8.56-4.34,10.35-8.24-8.87-18.49-19.84-18.49-19.84,0,0-6.87,3.98-5.75,5.08,1.12,1.1,14.51,34.41,26.68,33.26,4.69-.44,9.93-8.92,16.07-22.5Z"/>
        <path class="cls-6" d="M383.74,243.38c4.11,2.91,8.92,5.02,12.4,6.32,1.12.42,2.09.76,2.86,1.01.46-.85,6.14-12.06,6.61-12.93-3.93-8.68-8.81-19.88-8.81-19.88,0,0-3.3,4.18-7.77,13.84-1.4,3.04-3.49,7.35-5.29,11.65Z"/>
        <path d="M405.47,238.05c-1.01,1.95-6.03,11.85-6.47,12.65-.77-.25-1.74-.59-2.86-1.01-.23-.09-.47-.18-.71-.27l4.09-6.69,2.22-6.94s1.63,1.07,3.73,2.26Z"/>
        <path class="cls-24" d="M449.49,286.5c-10.16,5.89-35.04,6.8-48.45,2.2.32-5.68.81-25.75.83-31.21-2.36-14.17-5.79-36.83-5.07-39.61.65-.81,10.02-3.8,18.23-5.91,3.21-.82,11.63-1.07,17.27-.28,6.33.89,17.65,10.57,18.78,13.05-1.02,24-3.04,49.45-1.6,61.76Z"/>
        <path d="M450.84,230.06c-.34,7.2-.74,14.44-1.09,21.32-3.03-6.99-6.13-16.1-6.13-16.1l2.42-4.73,4.8-.49Z"/>
        <path class="cls-43" d="M467.54,236.62l-15.66,6.37,5.79,9.72-5.84,26.14-6.6.03s-3.89.06-5.13.73c-.96.53-6.01,4.99-6.49,5.94-.32.62.33,1.47,1.43,1.67-.53.53-.93.97-1.04,1.18-.38.74.61,1.79,2.07,1.71-.2.23-.36.43-.42.56-.42.83.86,2.06,2.62,1.64-.39.94.63,1.45,1.99,1.47,1.76.03,6.94-3.06,6.94-3.06,0,0,5.74,1.53,8.37-.46,2.63-2,3.72-6.67,3.72-6.67,0,0,13.68-22.35,15.58-33.27.36-2.09-7.33-13.69-7.33-13.69Z"/>
        <g>
          <path class="cls-18" d="M435.37,286.95c-.19.12,3.91-3.45,5.78-4.76,1.14-.8,3.7-.77,3.7-.77"/>
          <path class="cls-18" d="M436.4,289.83s4.79-4.14,6-4.84c.93-.53,3.58-.53,3.58-.53"/>
          <path class="cls-18" d="M438.84,291.87s3.74-2.87,4.8-3.54,3.37-.86,3.37-.86"/>
        </g>
        <path class="cls-68" d="M470.53,239.92c-3.48,3.83-13.16,9.66-17.39,10.78-3.09-4.95-8.51-13.34-9.97-16.27l-10.86-22.73s18.73,2,21.59,4.53c3.1,2.73,7.42,8.19,16.64,23.7Z"/>
        <path class="cls-7" d="M394.94,269.3h-32.06c-.72,0-1.33-.52-1.45-1.22l-8.17-47.41c-.16-.9.54-1.73,1.45-1.73h32.06c.72,0,1.33.52,1.45,1.23l8.17,47.41c.16.9-.54,1.73-1.45,1.73Z"/>
        <path d="M393.63,269.3h-32.06c-.72,0-1.33-.52-1.45-1.22l-8.17-47.41c-.16-.9.54-1.73,1.45-1.73h32.06c.72,0,1.33.52,1.45,1.23l8.17,47.41c.16.9-.54,1.73-1.45,1.73Z"/>
        <path class="cls-39" d="M365.97,238.07c.56-.25.98-.76.72-1.7-.18-.65-.73-1.27-1.5-1.65.59-.24,1.04-.76.77-1.72-.26-.95-1.31-1.87-2.69-1.98-1.08-.09-7.53-.91-7.62-.93-1.08-.38-2.04-1.04-2.5-2.32,0,0-2,2.22-1.98,6.12.01,1.66.6,5.09,2.2,8.29.6,1.21,3.74,2.1,5.12,2.13,1.49.03,5.04-.62,5.89-.82.98-.24,1.96-.5,1.57-1.89-.06-.2-.16-.4-.28-.6.7-.19,1.31-.71,1.01-1.8-.11-.4-.37-.79-.72-1.12Z"/>
        <g>
          <path class="cls-18" d="M364.34,234.84s-4.41.47-6.71.47c-.93,0-4.82-.8-4.82-.8"/>
          <path class="cls-18" d="M365.13,238.06s-5.87.73-7.5.67c-1.63-.06-4.31-.67-4.31-.67"/>
          <path class="cls-18" d="M365.13,240.99s-5.71.89-7.31.96c-1.6.06-3.83-.64-3.83-.64"/>
        </g>
        <path class="cls-69" d="M431.13,210.2c-.59-2.7-.76-7.45-.82-9.93.87-.75,1.52-1.55,1.73-2.32l.34-14.24-10.59-4.68c-1.35.37-6.25-2.06-7.23-.58-.98,1.48-3.15,11.27-3.68,13.29-.34,1.28-1.8,9.45,1.01,12.02,1.46,1.34,4.23,1.42,6.77,1.13-.53,2.29-1.32,5.7-1.41,5.86-.28.52-2.23,1.24-2.23,1.24,0,0-.16,4.71,3.37,5.52,7.76,1.74,13.9-5.8,13.9-5.8,0,0-.92-.35-1.17-1.5Z"/>
        <path d="M443.41,190.68c-.61,1-1.75,1.55-2.72,2.23-.49.65-1.03,1.29-1.62,1.93-.22.63-.3,1.33-.61,1.92-.71,1.37-2.35,1.82-3.91,2.05-1.34.97-2.76,1.88-4.19,2.67l-1.12-1.69c2.15-3.29,2.56-6.76.62-7.58-2.25-.94-3.69,1.59-3.69,1.59l-1.39-.56c.14-.77.26-1.52-.05-2.58-.44-1.13-1.29-1.92-1.45-2.69-.08-.4,0-.8.04-1.2.02-.4-.05-.85-.37-1.1-.27-.22-.65-.24-.99-.18-.34.05-.68.16-1.03.16-.9-.01-1.6-.75-2.31-1.31-.15-.12-.31-.24-.5-.28-.19-.05-.38-.03-.58-.01-1.25.1-2.53-.17-3.63-.78-.6-.34-1.19-.82-1.34-1.49-.09-.39-.04-.81-.15-1.19-.03-.05-.06-.09-.09-.14-.06-.05-.13-.09-.19-.14-.34-.39-.55-.88-.74-1.36-.54-1.34-1.09-2.9-.43-4.2.34-.69.97-1.18,1.44-1.79.78-1.03,1.16-2.45,2.29-3.08,1.24-.7,2.76-.14,4.16.08,1.58.25,3.23.03,4.69-.62.5-.23.99-.51,1.51-.69,1.38-.5,2.99-.28,4.18.57.38.26.71.58,1.09.82,1.25.81,2.85.78,4.34.84s3.14.33,4.07,1.49c1.27,1.61.59,4.16,1.82,5.8.88,1.17,2.63,1.69,3.05,3.1.26.86-.09,1.78-.18,2.68-.22,2.27,1.16,4.77-.02,6.73Z"/>
        <path class="cls-32" d="M418.67,204.89s3.98-.52,7.93-3.41c0,0-2.3,4.42-8.8,7.12l.87-3.71Z"/>
        <path class="cls-15" d="M373.46,448.28s2.87,1.47,6,1.47h24.71c1.31,0,2.57-.46,3.58-1.3,1.8-1.49,5.36-3.74,10.52-3.74"/>
        <path class="cls-15" d="M451.98,448.12s.96,1.34,2.97,1.63h15.47c.84,0,1.67-.22,2.4-.64l11.32-6.56c1.79-1.04,3.11-2.7,3.79-4.65.7-1.99,2.37-4.85,4.88-6.1"/>
        <polyline class="cls-17" points="420.38 305.08 423.89 307.57 427.05 322.17"/>
        <path class="cls-10" d="M397.46,420.13s15.13,1.47,24.64.32"/>
        <polygon class="cls-35" points="422 221.43 423.6 219.32 421.54 214.41 419.67 214.41 417.15 218.4 417.96 220.38 417.96 220.38 412.35 270.83 418.72 281.43 426.29 270.83 422 221.43"/>
        <path class="cls-59" d="M433.53,213.21l-2.6-4.08s-3.19,3.36-9.87,5.28l2.15,5.97s7.53-3,10.32-7.16Z"/>
        <path class="cls-52" d="M417.58,209.53s.32,2.32,2.09,4.88l-2.52,4.91s-2.56-3.76-3.01-6.86l3.43-2.94Z"/>
      </g>
      <g>
        <g class="cls-57">
          <circle class="cls-37" cx="53.25" cy="317.45" r="14.94"/>
          <circle class="cls-5" cx="131.96" cy="382.18" r="5.8"/>
          <circle class="cls-48" cx="518.21" cy="158.37" r="13.54"/>
          <circle class="cls-34" cx="464.77" cy="84.39" r="5.76"/>
          <circle class="cls-23" cx="278.21" cy="98.99" r="10.47"/>
          <path class="cls-54" d="M500.74,247.34c0,2.12-1.72,3.84-3.84,3.84s-3.84-1.72-3.84-3.84,1.72-3.84,3.84-3.84,3.84,1.72,3.84,3.84Z"/>
          <circle class="cls-38" cx="96.89" cy="158.37" r="3.84"/>
          <circle class="cls-62" cx="519.16" cy="392.64" r="8.4" transform="translate(-125.58 482.1) rotate(-45)"/>
        </g>
        <g>
          <g>
            <path d="M85.34,297.26c0,.93-.75,1.68-1.68,1.68s-1.68-.75-1.68-1.68.75-1.68,1.68-1.68,1.68.75,1.68,1.68Z"/>
            <path d="M93.12,297.26c0,.93-.75,1.68-1.68,1.68s-1.68-.75-1.68-1.68.75-1.68,1.68-1.68,1.68.75,1.68,1.68Z"/>
            <path d="M100.9,297.26c0,.93-.75,1.68-1.68,1.68s-1.68-.75-1.68-1.68.75-1.68,1.68-1.68,1.68.75,1.68,1.68Z"/>
            <path d="M108.68,297.26c0,.93-.75,1.68-1.68,1.68s-1.68-.75-1.68-1.68.75-1.68,1.68-1.68,1.68.75,1.68,1.68Z"/>
            <path d="M116.45,297.26c0,.93-.75,1.68-1.68,1.68s-1.68-.75-1.68-1.68.75-1.68,1.68-1.68,1.68.75,1.68,1.68Z"/>
          </g>
          <g>
            <circle cx="498.12" cy="209.2" r="3.94"/>
            <circle cx="516.4" cy="209.2" r="3.94"/>
            <circle cx="534.68" cy="209.2" r="3.94"/>
            <circle cx="552.96" cy="209.2" r="3.94"/>
          </g>
          <g>
            <circle cx="168.45" cy="117.56" r="3.45"/>
            <circle cx="184.43" cy="117.56" r="3.45"/>
            <path d="M203.86,117.56c0,1.9-1.54,3.45-3.45,3.45s-3.45-1.54-3.45-3.45,1.54-3.45,3.45-3.45,3.45,1.54,3.45,3.45Z"/>
            <path d="M219.84,117.56c0,1.9-1.54,3.45-3.45,3.45s-3.45-1.54-3.45-3.45,1.54-3.45,3.45-3.45,3.45,1.54,3.45,3.45Z"/>
          </g>
        </g>
        <g>
          <path class="cls-17" d="M496.92,449.75s-.71-12.83,9.05-15.77c13.07-3.93,16.98,11.68,11.31,13.26-11.6,3.23-10.24-43.27,16.01-35.99,12.19,3.38,7.27,15.3,2.43,13.7-8.23-2.72-2.24-29.72,22.33-17.41"/>
          <path class="cls-17" d="M68.08,98.99h47.12s-33.54-26.69-21.12-37.77c14.59-13.02,42.95,22.4,42.95,22.4,0,0-12.86-19.09-1.51-26.06,12.95-7.95,41.28,25.35,41.28,25.35,0,0-8.06-15.59,2.09-19.8,11.37-4.71,24.96,20.88,24.96,20.88,0,0,13.73-14.68,22.02-7.06,7.28,6.68-9.49,22.05-9.49,22.05h27.57"/>
          <path class="cls-17" d="M447.03,147.42h22.58s9.03-25,20.68-26.22c11.11-1.16,6.06,14.74,6.06,14.74,0,0,19.99-32.66,37.6-26.68,10.15,3.45-1.15,24.89-1.15,24.89,0,0,14.76-16.68,24.41-10.91,9.29,5.55-5.9,24.18-5.9,24.18h34.47"/>
        </g>
      </g>
      <g>
        <path d="M84.82,372.83s-12.77-23.02-15.45-38.76c0,0,9.96,10.17,23.74,35.06"/>
        <path class="cls-8" d="M83.03,382.92s-20.11-18.77-22.98-41.36c0,0,13.61,8.62,26.72,27.19,0,0-10.89-29.62-9.44-54.57,0,0,10.68,12.83,18.97,41.74,0,0,3.33-21.85,7.67-33.13,0,0,1.02,16.85-2.55,41.36,0,0,6.84-19.71,20.3-35.81,0,0,2.49,26.23-12.06,54.57"/>
        <rect x="75.89" y="379.34" width="40.83" height="73.44"/>
        <g class="cls-76">
          <path class="cls-11" d="M69.37,382.92s15.88,0,15.83,10.99c-.06,11.66-16.47,11.48-16.47,11.48"/>
          <path class="cls-11" d="M121.88,394.28s-9.32,1.02-9.99,5.49c-.59,3.96,3.8,5.71.86,9.54s-6.98,4.15-7.6,7.79c-.62,3.69,4.82,6.77,4.82,10.5,0,5.43-8.61,9.01-5.3,15.73,3.83,7.76,16.53,6.35,16.53,6.35"/>
        </g>
        <path d="M96.3,372.04s-1.33,4.43-1.65,7.82h4.47l-2.82-7.82"/>
        <path class="cls-1" d="M96.3,372.04s.59,15.33,12.27,30.67c0,0,2.52-18.02-3.96-33.7l-8.31,3.04Z"/>
      </g>
      <g>
        <path class="cls-35" d="M246.67,342.05h-15.03c-8.03,0-14.57-6.54-14.57-14.57v-51.2c0-15.2-12.37-27.57-27.57-27.57h-94.23v-10.05c0-1.75-1.97-2.77-3.4-1.77l-23.73,16.55c-1.23.86-1.23,2.69,0,3.55l23.73,16.55c1.43,1,3.4-.03,3.4-1.77v-10.05h94.23c8.03,0,14.57,6.54,14.57,14.57v51.2c0,15.2,12.37,27.57,27.57,27.57h15.03c8.03,0,14.57,6.54,14.57,14.57v83.16h13v-83.16c0-15.2-12.37-27.57-27.57-27.57Z"/>
        <path class="cls-56" d="M246.67,342.05h-15.03c-8.03,0-14.57-6.54-14.57-14.57v-51.2c0-15.2-12.37-27.57-27.57-27.57h-94.23v-10.05c0-1.75-1.97-2.77-3.4-1.77l-23.73,16.55c-1.23.86-1.23,2.69,0,3.55l23.73,16.55c1.43,1,3.4-.03,3.4-1.77v-10.05h94.23c8.03,0,14.57,6.54,14.57,14.57v51.2c0,15.2,12.37,27.57,27.57,27.57h15.03c8.03,0,14.57,6.54,14.57,14.57v83.16h13v-83.16c0-15.2-12.37-27.57-27.57-27.57Z"/>
        <path d="M93.11,236.5c1.12,0,2.17.89,2.17,2.17v10.05h94.23c15.2,0,27.57,12.37,27.57,27.57v51.2c0,8.03,6.54,14.57,14.57,14.57h15.03c15.2,0,27.57,12.37,27.57,27.57v83.16h-13v-83.16c0-8.03-6.54-14.57-14.57-14.57h-15.03c-15.2,0-27.57-12.37-27.57-27.57v-51.2c0-8.03-6.54-14.57-14.57-14.57h-94.23v10.05c0,1.28-1.05,2.17-2.17,2.17-.42,0-.84-.12-1.23-.39l-23.73-16.55c-1.23-.86-1.23-2.69,0-3.55l23.73-16.55c.39-.27.81-.39,1.23-.39M93.11,236c-.54,0-1.06.17-1.52.48l-23.73,16.55c-.71.5-1.14,1.31-1.14,2.18s.43,1.69,1.14,2.18l23.73,16.55c.45.32.98.48,1.52.48,1.47,0,2.67-1.2,2.67-2.67v-9.55h93.73c7.76,0,14.07,6.31,14.07,14.07v51.2c0,15.48,12.59,28.07,28.07,28.07h15.03c7.76,0,14.07,6.31,14.07,14.07v83.66h14v-83.66c0-15.48-12.59-28.07-28.07-28.07h-15.03c-7.76,0-14.07-6.31-14.07-14.07v-51.2c0-15.48-12.59-28.07-28.07-28.07h-93.73v-9.55c0-1.47-1.2-2.67-2.67-2.67h0Z"/>
        <polygon points="95.28 261.71 95.28 254.05 99.76 261.71 95.28 261.71"/>
      </g>
      <g>
        <line class="cls-16" x1="113.87" y1="460.98" x2="339.65" y2="460.98"/>
        <line class="cls-16" x1="371.83" y1="460.98" x2="496.92" y2="460.98"/>
        <line class="cls-16" x1="55.19" y1="452.78" x2="544.81" y2="452.78"/>
      </g>
    </g>
  </g>
</svg>