<svg width="205" height="48" viewBox="0 0 205 48" fill="none" xmlns="http://www.w3.org/2000/svg">
<g clip-path="url(#clip0_1_277)">
<path d="M24 47.3142C36.8761 47.3142 47.3143 36.8761 47.3143 24C47.3143 11.1238 36.8761 0.685669 24 0.685669C11.1239 0.685669 0.685715 11.1238 0.685715 24C0.685715 36.8761 11.1239 47.3142 24 47.3142Z" fill="url(#paint0_linear_1_277)"/>
<path opacity="0.95" d="M24 45.2571C35.74 45.2571 45.2571 35.7399 45.2571 23.9999C45.2571 12.2599 35.74 2.7428 24 2.7428C12.26 2.7428 2.74286 12.2599 2.74286 23.9999C2.74286 35.7399 12.26 45.2571 24 45.2571Z" fill="url(#paint1_linear_1_277)"/>
<path opacity="0.9" d="M10.9714 31.8857H8.91428C8.72493 31.8857 8.57143 32.0392 8.57143 32.2286V37.7143C8.57143 37.9037 8.72493 38.0572 8.91428 38.0572H10.9714C11.1608 38.0572 11.3143 37.9037 11.3143 37.7143V32.2286C11.3143 32.0392 11.1608 31.8857 10.9714 31.8857Z" fill="white"/>
<path opacity="0.9" d="M39.0857 31.8857H37.0286C36.8392 31.8857 36.6857 32.0392 36.6857 32.2286V37.7143C36.6857 37.9037 36.8392 38.0572 37.0286 38.0572H39.0857C39.2751 38.0572 39.4286 37.9037 39.4286 37.7143V32.2286C39.4286 32.0392 39.2751 31.8857 39.0857 31.8857Z" fill="white"/>
<path d="M10.9714 32.5714C19.6571 20 28.3428 20 37.0286 32.5714" stroke="white" stroke-width="1.02857" stroke-linecap="round"/>
<path opacity="0.7" d="M13.7143 32.5714L16.4571 21.6" stroke="white" stroke-width="0.514286"/>
<path opacity="0.75" d="M17.1429 32.5714L18.8571 18.1714" stroke="white" stroke-width="0.514286"/>
<path opacity="0.8" d="M20.5714 32.5714L21.6 16.1143" stroke="white" stroke-width="0.514286"/>
<path opacity="0.9" d="M24 32.5714V14.7428" stroke="white" stroke-width="0.685714"/>
<path opacity="0.8" d="M27.4286 32.5714L26.4 16.1143" stroke="white" stroke-width="0.514286"/>
<path opacity="0.75" d="M30.8571 32.5714L29.1429 18.1714" stroke="white" stroke-width="0.514286"/>
<path opacity="0.7" d="M34.2857 32.5714L31.5428 21.6" stroke="white" stroke-width="0.514286"/>
<path d="M24 15.4286C24.9468 15.4286 25.7143 14.6611 25.7143 13.7143C25.7143 12.7675 24.9468 12 24 12C23.0532 12 22.2857 12.7675 22.2857 13.7143C22.2857 14.6611 23.0532 15.4286 24 15.4286Z" fill="white"/>
<path d="M24 14.5715C24.4734 14.5715 24.8571 14.1877 24.8571 13.7143C24.8571 13.2409 24.4734 12.8572 24 12.8572C23.5266 12.8572 23.1429 13.2409 23.1429 13.7143C23.1429 14.1877 23.5266 14.5715 24 14.5715Z" fill="url(#paint2_linear_1_277)"/>
<path d="M9.94285 36.5143C11.1737 36.5143 12.1714 35.5165 12.1714 34.2857C12.1714 33.0549 11.1737 32.0571 9.94285 32.0571C8.71204 32.0571 7.71428 33.0549 7.71428 34.2857C7.71428 35.5165 8.71204 36.5143 9.94285 36.5143Z" fill="white"/>
<path d="M9.94285 36C10.8896 36 11.6571 35.2325 11.6571 34.2857C11.6571 33.3389 10.8896 32.5714 9.94285 32.5714C8.99607 32.5714 8.22856 33.3389 8.22856 34.2857C8.22856 35.2325 8.99607 36 9.94285 36Z" fill="url(#paint3_linear_1_277)"/>
<path d="M10.1143 36.6857H9.77142C9.39271 36.6857 9.08571 36.9927 9.08571 37.3714V39.0857C9.08571 39.4644 9.39271 39.7714 9.77142 39.7714H10.1143C10.493 39.7714 10.8 39.4644 10.8 39.0857V37.3714C10.8 36.9927 10.493 36.6857 10.1143 36.6857Z" fill="white"/>
<path d="M10.1143 36.8572H9.77143C9.48739 36.8572 9.25714 37.0874 9.25714 37.3715V39.0857C9.25714 39.3698 9.48739 39.6 9.77143 39.6H10.1143C10.3983 39.6 10.6286 39.3698 10.6286 39.0857V37.3715C10.6286 37.0874 10.3983 36.8572 10.1143 36.8572Z" fill="url(#paint4_linear_1_277)"/>
<path d="M38.0571 36.5143C39.2879 36.5143 40.2857 35.5165 40.2857 34.2857C40.2857 33.0549 39.2879 32.0571 38.0571 32.0571C36.8263 32.0571 35.8286 33.0549 35.8286 34.2857C35.8286 35.5165 36.8263 36.5143 38.0571 36.5143Z" fill="white"/>
<path d="M38.0571 36C39.0039 36 39.7714 35.2325 39.7714 34.2857C39.7714 33.3389 39.0039 32.5714 38.0571 32.5714C37.1104 32.5714 36.3428 33.3389 36.3428 34.2857C36.3428 35.2325 37.1104 36 38.0571 36Z" fill="url(#paint5_linear_1_277)"/>
<path d="M38.2286 36.6857H37.8857C37.507 36.6857 37.2 36.9927 37.2 37.3714V39.0857C37.2 39.4644 37.507 39.7714 37.8857 39.7714H38.2286C38.6073 39.7714 38.9143 39.4644 38.9143 39.0857V37.3714C38.9143 36.9927 38.6073 36.6857 38.2286 36.6857Z" fill="white"/>
<path d="M38.2286 36.8572H37.8857C37.6017 36.8572 37.3714 37.0874 37.3714 37.3715V39.0857C37.3714 39.3698 37.6017 39.6 37.8857 39.6H38.2286C38.5126 39.6 38.7429 39.3698 38.7429 39.0857V37.3715C38.7429 37.0874 38.5126 36.8572 38.2286 36.8572Z" fill="url(#paint6_linear_1_277)"/>
</g>
<path d="M67.0312 19.4303V31.6666H65.1758V19.4303H60.4492V17.9069H71.7578V19.4303H67.0312ZM73.543 31.8619C72.4818 31.8619 71.6842 31.582 71.1504 31.0221C70.6165 30.4622 70.3496 29.694 70.3496 28.7174C70.3496 27.6237 70.7077 26.7838 71.4238 26.1979C72.1465 25.6119 73.3086 25.2994 74.9102 25.2604L77.2832 25.2213V24.6451C77.2832 23.7858 77.1009 23.1705 76.7363 22.7994C76.3717 22.4283 75.7988 22.2428 75.0176 22.2428C74.2298 22.2428 73.6569 22.3763 73.2988 22.6432C72.9408 22.9101 72.7259 23.3365 72.6543 23.9225L70.8184 23.7565C71.1178 21.8554 72.5306 20.9049 75.0566 20.9049C76.3848 20.9049 77.3841 21.2109 78.0547 21.8229C78.7253 22.4283 79.0605 23.3073 79.0605 24.4596V29.0104C79.0605 29.5312 79.1289 29.9251 79.2656 30.192C79.4023 30.4524 79.6628 30.5826 80.0469 30.5826C80.2292 30.5826 80.4212 30.5599 80.623 30.5143V31.608C80.4017 31.6601 80.1771 31.6992 79.9492 31.7252C79.7214 31.7513 79.4935 31.7643 79.2656 31.7643C78.6146 31.7643 78.1393 31.595 77.8398 31.2565C77.5469 30.9114 77.3809 30.3743 77.3418 29.6451H77.2832C76.834 30.4524 76.3099 31.0253 75.7109 31.3639C75.1185 31.6959 74.3958 31.8619 73.543 31.8619ZM77.2832 26.4518L75.3594 26.4908C74.5391 26.4974 73.9141 26.582 73.4844 26.7448C73.0547 26.901 72.7259 27.1419 72.498 27.4674C72.2702 27.7929 72.1562 28.2194 72.1562 28.7467C72.1562 29.3196 72.3092 29.7623 72.6152 30.0748C72.9277 30.3873 73.3704 30.5436 73.9434 30.5436C74.5944 30.5436 75.1673 30.3971 75.6621 30.1041C76.1634 29.8112 76.5573 29.4108 76.8438 28.903C77.1367 28.3886 77.2832 27.8613 77.2832 27.3209V26.4518ZM83.2383 17.1744V31.6666H81.4805V17.1744H83.2383ZM86.7812 26.7545C86.7812 27.9655 87.0319 28.8997 87.5332 29.5573C88.0345 30.2148 88.7669 30.5436 89.7305 30.5436C90.4922 30.5436 91.1009 30.3906 91.5566 30.0846C92.0189 29.7786 92.3314 29.3912 92.4941 28.9225L94.0371 29.3619C93.4056 31.0286 91.9701 31.8619 89.7305 31.8619C88.168 31.8619 86.9766 31.3964 86.1562 30.4655C85.3424 29.5345 84.9355 28.151 84.9355 26.3151C84.9355 24.5703 85.3424 23.2324 86.1562 22.3014C86.9766 21.3704 88.1452 20.9049 89.6621 20.9049C91.2181 20.9049 92.3835 21.3737 93.1582 22.3112C93.9329 23.2487 94.3203 24.6517 94.3203 26.5201V26.7545H86.7812ZM92.5039 25.4069C92.4062 24.2936 92.123 23.483 91.6543 22.9752C91.1855 22.4609 90.5117 22.2037 89.6328 22.2037C88.7799 22.2037 88.1029 22.4902 87.6016 23.0631C87.1068 23.6295 86.8398 24.4108 86.8008 25.4069H92.5039ZM97.8633 25.5436V31.6666H96.1055V23.3561C96.1055 22.7376 96.099 22.2428 96.0859 21.8717C96.0794 21.4941 96.0664 21.2369 96.0469 21.1002H97.707C97.7201 21.2239 97.7298 21.3802 97.7363 21.569C97.7493 21.7578 97.7591 21.9661 97.7656 22.194C97.7721 22.4218 97.7786 22.6595 97.7852 22.9069H97.8145C98.2181 22.1777 98.6836 21.6634 99.2109 21.3639C99.7448 21.0579 100.406 20.9049 101.193 20.9049C102.352 20.9049 103.199 21.2011 103.732 21.7936C104.273 22.386 104.543 23.33 104.543 24.6256V31.6666H102.775V24.9674C102.775 23.9583 102.613 23.2552 102.287 22.858C101.962 22.4609 101.398 22.2623 100.598 22.2623C99.7513 22.2623 99.084 22.552 98.5957 23.1315C98.1074 23.7109 97.8633 24.5149 97.8633 25.5436ZM110.762 31.5885C110.189 31.7448 109.596 31.8229 108.984 31.8229C108.281 31.8229 107.754 31.6243 107.402 31.2272C107.051 30.8235 106.875 30.2246 106.875 29.4303V22.3795H105.654V21.1002H106.943L107.461 18.7369H108.633V21.1002H110.586V22.3795H108.633V29.0494C108.633 29.5573 108.714 29.9153 108.877 30.1237C109.046 30.3255 109.336 30.4264 109.746 30.4264C109.967 30.4264 110.306 30.3808 110.762 30.2897V31.5885Z" fill="#101828"/>
<path d="M122.177 24C122.177 23.4477 122.625 23 123.177 23H141.177C141.729 23 142.177 23.4477 142.177 24C142.177 24.5523 141.729 25 141.177 25H123.177C122.625 25 122.177 24.5523 122.177 24Z" fill="url(#paint7_linear_1_277)"/>
<path d="M162.462 27.7897C162.462 29.0136 162.016 29.9674 161.124 30.651C160.232 31.3281 158.992 31.6666 157.404 31.6666H151.818V17.9069H156.818C158.432 17.9069 159.643 18.1868 160.451 18.7467C161.258 19.3001 161.661 20.1334 161.661 21.2467C161.661 22.0605 161.434 22.7441 160.978 23.2975C160.522 23.8509 159.878 24.222 159.044 24.4108C160.138 24.541 160.981 24.9088 161.574 25.5143C162.166 26.1132 162.462 26.8717 162.462 27.7897ZM159.786 21.4713C159.786 20.7291 159.533 20.1985 159.025 19.8795C158.517 19.5605 157.781 19.401 156.818 19.401H153.683V23.7565H156.818C157.814 23.7565 158.556 23.5709 159.044 23.1998C159.539 22.8222 159.786 22.2461 159.786 21.4713ZM160.577 27.6432C160.577 26.0221 159.438 25.2115 157.16 25.2115H153.683V30.1725H157.306C158.445 30.1725 159.275 29.9609 159.796 29.5377C160.317 29.1145 160.577 28.483 160.577 27.6432ZM166.161 26.1588V31.6666H164.404V23.5612C164.404 23.1901 164.397 22.7994 164.384 22.3893C164.378 21.9791 164.365 21.5494 164.345 21.1002H166.005C166.018 21.3997 166.028 21.6699 166.035 21.9108C166.048 22.1517 166.057 22.3632 166.064 22.5455C166.07 22.7213 166.074 22.8711 166.074 22.9948C166.08 23.1119 166.083 23.1998 166.083 23.2584H166.122C166.318 22.6204 166.533 22.1256 166.767 21.774C166.995 21.4485 167.255 21.2239 167.548 21.1002C167.841 20.97 168.202 20.9049 168.632 20.9049C168.873 20.9049 169.111 20.9375 169.345 21.0026V22.6139C169.124 22.5488 168.811 22.5162 168.408 22.5162C167.678 22.5162 167.122 22.832 166.738 23.4635C166.354 24.0885 166.161 24.9869 166.161 26.1588ZM172.273 17.1744V18.8541H170.515V17.1744H172.273ZM172.273 21.1002V31.6666H170.515V21.1002H172.273ZM181.285 31.6666C181.271 31.595 181.255 31.4615 181.236 31.2662C181.223 31.0644 181.21 30.8431 181.197 30.6022C181.19 30.3613 181.187 30.1497 181.187 29.9674H181.148C180.822 30.6445 180.389 31.1295 179.849 31.4225C179.315 31.7155 178.651 31.8619 177.857 31.8619C176.522 31.8619 175.539 31.4127 174.908 30.5143C174.283 29.6158 173.97 28.2552 173.97 26.4323C173.97 24.5898 174.292 23.2096 174.937 22.2916C175.588 21.3671 176.561 20.9049 177.857 20.9049C178.658 20.9049 179.325 21.0514 179.859 21.3444C180.393 21.6373 180.822 22.1028 181.148 22.7408H181.167L181.148 21.5592V17.1744H182.906V29.4889C182.906 30.0423 182.909 30.5013 182.915 30.8658C182.928 31.2239 182.945 31.4908 182.964 31.6666H181.285ZM175.816 26.3737C175.816 27.8515 176.011 28.9095 176.402 29.5475C176.792 30.1855 177.427 30.5045 178.306 30.5045C179.302 30.5045 180.025 30.1595 180.474 29.4694C180.923 28.7793 181.148 27.7083 181.148 26.2565C181.148 24.8567 180.923 23.8313 180.474 23.1803C180.025 22.5293 179.309 22.2037 178.326 22.2037C177.44 22.2037 176.799 22.5325 176.402 23.1901C176.011 23.8411 175.816 24.9023 175.816 26.3737ZM189.115 35.817C187.962 35.817 187.044 35.5892 186.361 35.1334C185.677 34.6842 185.238 34.0429 185.042 33.2096L186.81 32.9557C186.927 33.444 187.184 33.8183 187.581 34.0787C187.985 34.3457 188.512 34.4791 189.163 34.4791C190.036 34.4791 190.69 34.222 191.126 33.7076C191.569 33.1933 191.79 32.4251 191.79 31.403V29.7037H191.771C191.439 30.3808 190.983 30.8919 190.404 31.2369C189.824 31.5755 189.147 31.7448 188.372 31.7448C187.077 31.7448 186.123 31.3151 185.511 30.4557C184.906 29.5963 184.603 28.2454 184.603 26.403C184.603 24.5345 184.928 23.1575 185.579 22.2721C186.237 21.3802 187.233 20.9342 188.568 20.9342C189.316 20.9342 189.964 21.1067 190.511 21.4518C191.064 21.7903 191.491 22.2753 191.79 22.9069H191.81C191.81 22.7767 191.816 22.5748 191.829 22.3014C191.842 22.0214 191.859 21.7578 191.878 21.5104C191.898 21.263 191.914 21.1263 191.927 21.1002H193.597C193.558 21.4518 193.538 22.1809 193.538 23.2877V31.3639C193.538 32.8483 193.171 33.9615 192.435 34.7037C191.699 35.4459 190.592 35.817 189.115 35.817ZM191.79 26.3834C191.79 25.1009 191.527 24.0918 190.999 23.3561C190.479 22.6139 189.811 22.2428 188.997 22.2428C188.099 22.2428 187.445 22.5683 187.035 23.2194C186.624 23.8704 186.419 24.9251 186.419 26.3834C186.419 27.8287 186.611 28.8671 186.995 29.4987C187.38 30.1302 188.037 30.4459 188.968 30.4459C189.801 30.4459 190.479 30.0846 190.999 29.3619C191.527 28.6328 191.79 27.6399 191.79 26.3834ZM197.091 26.7545C197.091 27.9655 197.342 28.8997 197.843 29.5573C198.344 30.2148 199.077 30.5436 200.04 30.5436C200.802 30.5436 201.411 30.3906 201.867 30.0846C202.329 29.7786 202.641 29.3912 202.804 28.9225L204.347 29.3619C203.716 31.0286 202.28 31.8619 200.04 31.8619C198.478 31.8619 197.286 31.3964 196.466 30.4655C195.652 29.5345 195.245 28.151 195.245 26.3151C195.245 24.5703 195.652 23.2324 196.466 22.3014C197.286 21.3704 198.455 20.9049 199.972 20.9049C201.528 20.9049 202.693 21.3737 203.468 22.3112C204.243 23.2487 204.63 24.6517 204.63 26.5201V26.7545H197.091ZM202.814 25.4069C202.716 24.2936 202.433 23.483 201.964 22.9752C201.495 22.4609 200.822 22.2037 199.943 22.2037C199.09 22.2037 198.413 22.4902 197.911 23.0631C197.417 23.6295 197.15 24.4108 197.111 25.4069H202.814Z" fill="#4A5565"/>
<defs>
<linearGradient id="paint0_linear_1_277" x1="0.685715" y1="0.685669" x2="4663.54" y2="4663.54" gradientUnits="userSpaceOnUse">
<stop stop-color="#6366F1"/>
<stop offset="0.5" stop-color="#8B5CF6"/>
<stop offset="1" stop-color="#D946EF"/>
</linearGradient>
<linearGradient id="paint1_linear_1_277" x1="2.74286" y1="2.7428" x2="4254.17" y2="4254.17" gradientUnits="userSpaceOnUse">
<stop stop-color="#4F46E5"/>
<stop offset="0.5" stop-color="#7C3AED"/>
<stop offset="1" stop-color="#C026D3"/>
</linearGradient>
<linearGradient id="paint2_linear_1_277" x1="23.1429" y1="12.8572" x2="194.571" y2="184.286" gradientUnits="userSpaceOnUse">
<stop stop-color="#4F46E5"/>
<stop offset="0.5" stop-color="#7C3AED"/>
<stop offset="1" stop-color="#C026D3"/>
</linearGradient>
<linearGradient id="paint3_linear_1_277" x1="8.22856" y1="32.5714" x2="8.22856" y2="375.429" gradientUnits="userSpaceOnUse">
<stop stop-color="#6366F1"/>
<stop offset="1" stop-color="#8B5CF6"/>
</linearGradient>
<linearGradient id="paint4_linear_1_277" x1="9.25714" y1="36.8572" x2="9.25714" y2="311.143" gradientUnits="userSpaceOnUse">
<stop stop-color="#6366F1"/>
<stop offset="1" stop-color="#8B5CF6"/>
</linearGradient>
<linearGradient id="paint5_linear_1_277" x1="36.3428" y1="32.5714" x2="36.3428" y2="375.429" gradientUnits="userSpaceOnUse">
<stop stop-color="#6366F1"/>
<stop offset="1" stop-color="#8B5CF6"/>
</linearGradient>
<linearGradient id="paint6_linear_1_277" x1="37.3714" y1="36.8572" x2="37.3714" y2="311.143" gradientUnits="userSpaceOnUse">
<stop stop-color="#6366F1"/>
<stop offset="1" stop-color="#8B5CF6"/>
</linearGradient>
<linearGradient id="paint7_linear_1_277" x1="122.177" y1="24" x2="142.177" y2="24" gradientUnits="userSpaceOnUse">
<stop stop-color="#615FFF"/>
<stop offset="1" stop-color="#AD46FF"/>
</linearGradient>
<clipPath id="clip0_1_277">
<rect width="48" height="48" fill="white"/>
</clipPath>
</defs>
</svg>
