<svg width="178" height="48" viewBox="0 0 178 48" fill="none" xmlns="http://www.w3.org/2000/svg">
<g clip-path="url(#clip0_1_277)">
<path d="M24 47.3142C36.8761 47.3142 47.3143 36.8761 47.3143 24C47.3143 11.1238 36.8761 0.685669 24 0.685669C11.1239 0.685669 0.685715 11.1238 0.685715 24C0.685715 36.8761 11.1239 47.3142 24 47.3142Z" fill="url(#paint0_linear_1_277)"/>
<path opacity="0.95" d="M24 45.2571C35.74 45.2571 45.2571 35.7399 45.2571 23.9999C45.2571 12.2599 35.74 2.7428 24 2.7428C12.26 2.7428 2.74286 12.2599 2.74286 23.9999C2.74286 35.7399 12.26 45.2571 24 45.2571Z" fill="url(#paint1_linear_1_277)"/>
<path opacity="0.9" d="M10.9714 31.8857H8.91428C8.72493 31.8857 8.57143 32.0392 8.57143 32.2286V37.7143C8.57143 37.9037 8.72493 38.0572 8.91428 38.0572H10.9714C11.1608 38.0572 11.3143 37.9037 11.3143 37.7143V32.2286C11.3143 32.0392 11.1608 31.8857 10.9714 31.8857Z" fill="white"/>
<path opacity="0.9" d="M39.0857 31.8857H37.0286C36.8392 31.8857 36.6857 32.0392 36.6857 32.2286V37.7143C36.6857 37.9037 36.8392 38.0572 37.0286 38.0572H39.0857C39.2751 38.0572 39.4286 37.9037 39.4286 37.7143V32.2286C39.4286 32.0392 39.2751 31.8857 39.0857 31.8857Z" fill="white"/>
<path d="M10.9714 32.5714C19.6571 20 28.3428 20 37.0286 32.5714" stroke="white" stroke-width="1.02857" stroke-linecap="round"/>
<path opacity="0.7" d="M13.7143 32.5714L16.4571 21.6" stroke="white" stroke-width="0.514286"/>
<path opacity="0.75" d="M17.1429 32.5714L18.8571 18.1714" stroke="white" stroke-width="0.514286"/>
<path opacity="0.8" d="M20.5714 32.5714L21.6 16.1143" stroke="white" stroke-width="0.514286"/>
<path opacity="0.9" d="M24 32.5714V14.7428" stroke="white" stroke-width="0.685714"/>
<path opacity="0.8" d="M27.4286 32.5714L26.4 16.1143" stroke="white" stroke-width="0.514286"/>
<path opacity="0.75" d="M30.8571 32.5714L29.1429 18.1714" stroke="white" stroke-width="0.514286"/>
<path opacity="0.7" d="M34.2857 32.5714L31.5428 21.6" stroke="white" stroke-width="0.514286"/>
<path d="M24 15.4286C24.9468 15.4286 25.7143 14.6611 25.7143 13.7143C25.7143 12.7675 24.9468 12 24 12C23.0532 12 22.2857 12.7675 22.2857 13.7143C22.2857 14.6611 23.0532 15.4286 24 15.4286Z" fill="white"/>
<path d="M24 14.5715C24.4734 14.5715 24.8571 14.1877 24.8571 13.7143C24.8571 13.2409 24.4734 12.8572 24 12.8572C23.5266 12.8572 23.1429 13.2409 23.1429 13.7143C23.1429 14.1877 23.5266 14.5715 24 14.5715Z" fill="url(#paint2_linear_1_277)"/>
<path d="M9.94285 36.5143C11.1737 36.5143 12.1714 35.5165 12.1714 34.2857C12.1714 33.0549 11.1737 32.0571 9.94285 32.0571C8.71204 32.0571 7.71428 33.0549 7.71428 34.2857C7.71428 35.5165 8.71204 36.5143 9.94285 36.5143Z" fill="white"/>
<path d="M9.94285 36C10.8896 36 11.6571 35.2325 11.6571 34.2857C11.6571 33.3389 10.8896 32.5714 9.94285 32.5714C8.99607 32.5714 8.22856 33.3389 8.22856 34.2857C8.22856 35.2325 8.99607 36 9.94285 36Z" fill="url(#paint3_linear_1_277)"/>
<path d="M10.1143 36.6857H9.77142C9.39271 36.6857 9.08571 36.9927 9.08571 37.3714V39.0857C9.08571 39.4644 9.39271 39.7714 9.77142 39.7714H10.1143C10.493 39.7714 10.8 39.4644 10.8 39.0857V37.3714C10.8 36.9927 10.493 36.6857 10.1143 36.6857Z" fill="white"/>
<path d="M10.1143 36.8572H9.77143C9.48739 36.8572 9.25714 37.0874 9.25714 37.3715V39.0857C9.25714 39.3698 9.48739 39.6 9.77143 39.6H10.1143C10.3983 39.6 10.6286 39.3698 10.6286 39.0857V37.3715C10.6286 37.0874 10.3983 36.8572 10.1143 36.8572Z" fill="url(#paint4_linear_1_277)"/>
<path d="M38.0571 36.5143C39.2879 36.5143 40.2857 35.5165 40.2857 34.2857C40.2857 33.0549 39.2879 32.0571 38.0571 32.0571C36.8263 32.0571 35.8286 33.0549 35.8286 34.2857C35.8286 35.5165 36.8263 36.5143 38.0571 36.5143Z" fill="white"/>
<path d="M38.0571 36C39.0039 36 39.7714 35.2325 39.7714 34.2857C39.7714 33.3389 39.0039 32.5714 38.0571 32.5714C37.1104 32.5714 36.3428 33.3389 36.3428 34.2857C36.3428 35.2325 37.1104 36 38.0571 36Z" fill="url(#paint5_linear_1_277)"/>
<path d="M38.2286 36.6857H37.8857C37.507 36.6857 37.2 36.9927 37.2 37.3714V39.0857C37.2 39.4644 37.507 39.7714 37.8857 39.7714H38.2286C38.6073 39.7714 38.9143 39.4644 38.9143 39.0857V37.3714C38.9143 36.9927 38.6073 36.6857 38.2286 36.6857Z" fill="white"/>
<path d="M38.2286 36.8572H37.8857C37.6017 36.8572 37.3714 37.0874 37.3714 37.3715V39.0857C37.3714 39.3698 37.6017 39.6 37.8857 39.6H38.2286C38.5126 39.6 38.7429 39.3698 38.7429 39.0857V37.3715C38.7429 37.0874 38.5126 36.8572 38.2286 36.8572Z" fill="url(#paint6_linear_1_277)"/>
</g>
<path d="M63.5059 25.2897V31.6666H61.6406V17.9069H63.5059V23.7272H70.9473V17.9069H72.8125V31.6666H70.9473V25.2897H63.5059ZM77.0488 17.1744V18.8541H75.291V17.1744H77.0488ZM77.0488 21.1002V31.6666H75.291V21.1002H77.0488ZM81.0508 26.1588V31.6666H79.293V23.5612C79.293 23.1901 79.2865 22.7994 79.2734 22.3893C79.2669 21.9791 79.2539 21.5494 79.2344 21.1002H80.8945C80.9076 21.3997 80.9173 21.6699 80.9238 21.9108C80.9368 22.1517 80.9466 22.3632 80.9531 22.5455C80.9596 22.7213 80.9629 22.8711 80.9629 22.9948C80.9694 23.1119 80.9727 23.1998 80.9727 23.2584H81.0117C81.207 22.6204 81.4219 22.1256 81.6562 21.774C81.8841 21.4485 82.1445 21.2239 82.4375 21.1002C82.7305 20.97 83.0918 20.9049 83.5215 20.9049C83.7624 20.9049 84 20.9375 84.2344 21.0026V22.6139C84.013 22.5488 83.7005 22.5162 83.2969 22.5162C82.5677 22.5162 82.0111 22.832 81.627 23.4635C81.2428 24.0885 81.0508 24.9869 81.0508 26.1588ZM86.7617 26.7545C86.7617 27.9655 87.0124 28.8997 87.5137 29.5573C88.015 30.2148 88.7474 30.5436 89.7109 30.5436C90.4727 30.5436 91.0814 30.3906 91.5371 30.0846C91.9993 29.7786 92.3118 29.3912 92.4746 28.9225L94.0176 29.3619C93.3861 31.0286 91.9505 31.8619 89.7109 31.8619C88.1484 31.8619 86.957 31.3964 86.1367 30.4655C85.3229 29.5345 84.916 28.151 84.916 26.3151C84.916 24.5703 85.3229 23.2324 86.1367 22.3014C86.957 21.3704 88.1257 20.9049 89.6426 20.9049C91.1986 20.9049 92.3639 21.3737 93.1387 22.3112C93.9134 23.2487 94.3008 24.6517 94.3008 26.5201V26.7545H86.7617ZM92.4844 25.4069C92.3867 24.2936 92.1035 23.483 91.6348 22.9752C91.166 22.4609 90.4922 22.2037 89.6133 22.2037C88.7604 22.2037 88.0833 22.4902 87.582 23.0631C87.0872 23.6295 86.8203 24.4108 86.7812 25.4069H92.4844Z" fill="#101828"/>
<path d="M104 24C104 23.4477 104.448 23 105 23H123C123.552 23 124 23.4477 124 24C124 24.5523 123.552 25 123 25H105C104.448 25 104 24.5523 104 24Z" fill="url(#paint7_linear_1_277)"/>
<path d="M135.555 27.6432L133.973 31.6666H132.039L137.654 17.9069H139.773L145.301 31.6666H143.396L141.824 27.6432H135.555ZM138.689 19.3131C138.579 19.6777 138.445 20.0846 138.289 20.5338C138.139 20.9765 137.999 21.3671 137.869 21.7057L136.121 26.1881H141.268L139.5 21.6471C139.409 21.4192 139.288 21.097 139.139 20.6803C138.989 20.2636 138.839 19.8079 138.689 19.3131ZM152.994 31.6666C152.981 31.595 152.965 31.4615 152.945 31.2662C152.932 31.0644 152.919 30.8431 152.906 30.6022C152.9 30.3613 152.896 30.1497 152.896 29.9674H152.857C152.532 30.6445 152.099 31.1295 151.559 31.4225C151.025 31.7155 150.361 31.8619 149.566 31.8619C148.232 31.8619 147.249 31.4127 146.617 30.5143C145.992 29.6158 145.68 28.2552 145.68 26.4323C145.68 24.5898 146.002 23.2096 146.646 22.2916C147.298 21.3671 148.271 20.9049 149.566 20.9049C150.367 20.9049 151.035 21.0514 151.568 21.3444C152.102 21.6373 152.532 22.1028 152.857 22.7408H152.877L152.857 21.5592V17.1744H154.615V29.4889C154.615 30.0423 154.618 30.5013 154.625 30.8658C154.638 31.2239 154.654 31.4908 154.674 31.6666H152.994ZM147.525 26.3737C147.525 27.8515 147.721 28.9095 148.111 29.5475C148.502 30.1855 149.137 30.5045 150.016 30.5045C151.012 30.5045 151.734 30.1595 152.184 29.4694C152.633 28.7793 152.857 27.7083 152.857 26.2565C152.857 24.8567 152.633 23.8313 152.184 23.1803C151.734 22.5293 151.018 22.2037 150.035 22.2037C149.15 22.2037 148.508 22.5325 148.111 23.1901C147.721 23.8411 147.525 24.9023 147.525 26.3737ZM163.627 31.6666C163.614 31.595 163.598 31.4615 163.578 31.2662C163.565 31.0644 163.552 30.8431 163.539 30.6022C163.533 30.3613 163.529 30.1497 163.529 29.9674H163.49C163.165 30.6445 162.732 31.1295 162.191 31.4225C161.658 31.7155 160.993 31.8619 160.199 31.8619C158.865 31.8619 157.882 31.4127 157.25 30.5143C156.625 29.6158 156.312 28.2552 156.312 26.4323C156.312 24.5898 156.635 23.2096 157.279 22.2916C157.93 21.3671 158.904 20.9049 160.199 20.9049C161 20.9049 161.667 21.0514 162.201 21.3444C162.735 21.6373 163.165 22.1028 163.49 22.7408H163.51L163.49 21.5592V17.1744H165.248V29.4889C165.248 30.0423 165.251 30.5013 165.258 30.8658C165.271 31.2239 165.287 31.4908 165.307 31.6666H163.627ZM158.158 26.3737C158.158 27.8515 158.354 28.9095 158.744 29.5475C159.135 30.1855 159.77 30.5045 160.648 30.5045C161.645 30.5045 162.367 30.1595 162.816 29.4694C163.266 28.7793 163.49 27.7083 163.49 26.2565C163.49 24.8567 163.266 23.8313 162.816 23.1803C162.367 22.5293 161.651 22.2037 160.668 22.2037C159.783 22.2037 159.141 22.5325 158.744 23.1901C158.354 23.8411 158.158 24.9023 158.158 26.3737ZM170.148 31.8619C169.087 31.8619 168.29 31.582 167.756 31.0221C167.222 30.4622 166.955 29.694 166.955 28.7174C166.955 27.6237 167.313 26.7838 168.029 26.1979C168.752 25.6119 169.914 25.2994 171.516 25.2604L173.889 25.2213V24.6451C173.889 23.7858 173.706 23.1705 173.342 22.7994C172.977 22.4283 172.404 22.2428 171.623 22.2428C170.835 22.2428 170.262 22.3763 169.904 22.6432C169.546 22.9101 169.331 23.3365 169.26 23.9225L167.424 23.7565C167.723 21.8554 169.136 20.9049 171.662 20.9049C172.99 20.9049 173.99 21.2109 174.66 21.8229C175.331 22.4283 175.666 23.3073 175.666 24.4596V29.0104C175.666 29.5312 175.734 29.9251 175.871 30.192C176.008 30.4524 176.268 30.5826 176.652 30.5826C176.835 30.5826 177.027 30.5599 177.229 30.5143V31.608C177.007 31.6601 176.783 31.6992 176.555 31.7252C176.327 31.7513 176.099 31.7643 175.871 31.7643C175.22 31.7643 174.745 31.595 174.445 31.2565C174.152 30.9114 173.986 30.3743 173.947 29.6451H173.889C173.439 30.4524 172.915 31.0253 172.316 31.3639C171.724 31.6959 171.001 31.8619 170.148 31.8619ZM173.889 26.4518L171.965 26.4908C171.145 26.4974 170.52 26.582 170.09 26.7448C169.66 26.901 169.331 27.1419 169.104 27.4674C168.876 27.7929 168.762 28.2194 168.762 28.7467C168.762 29.3196 168.915 29.7623 169.221 30.0748C169.533 30.3873 169.976 30.5436 170.549 30.5436C171.2 30.5436 171.773 30.3971 172.268 30.1041C172.769 29.8112 173.163 29.4108 173.449 28.903C173.742 28.3886 173.889 27.8613 173.889 27.3209V26.4518Z" fill="#4A5565"/>
<defs>
<linearGradient id="paint0_linear_1_277" x1="0.685715" y1="0.685669" x2="4663.54" y2="4663.54" gradientUnits="userSpaceOnUse">
<stop stop-color="#6366F1"/>
<stop offset="0.5" stop-color="#8B5CF6"/>
<stop offset="1" stop-color="#D946EF"/>
</linearGradient>
<linearGradient id="paint1_linear_1_277" x1="2.74286" y1="2.7428" x2="4254.17" y2="4254.17" gradientUnits="userSpaceOnUse">
<stop stop-color="#4F46E5"/>
<stop offset="0.5" stop-color="#7C3AED"/>
<stop offset="1" stop-color="#C026D3"/>
</linearGradient>
<linearGradient id="paint2_linear_1_277" x1="23.1429" y1="12.8572" x2="194.571" y2="184.286" gradientUnits="userSpaceOnUse">
<stop stop-color="#4F46E5"/>
<stop offset="0.5" stop-color="#7C3AED"/>
<stop offset="1" stop-color="#C026D3"/>
</linearGradient>
<linearGradient id="paint3_linear_1_277" x1="8.22856" y1="32.5714" x2="8.22856" y2="375.429" gradientUnits="userSpaceOnUse">
<stop stop-color="#6366F1"/>
<stop offset="1" stop-color="#8B5CF6"/>
</linearGradient>
<linearGradient id="paint4_linear_1_277" x1="9.25714" y1="36.8572" x2="9.25714" y2="311.143" gradientUnits="userSpaceOnUse">
<stop stop-color="#6366F1"/>
<stop offset="1" stop-color="#8B5CF6"/>
</linearGradient>
<linearGradient id="paint5_linear_1_277" x1="36.3428" y1="32.5714" x2="36.3428" y2="375.429" gradientUnits="userSpaceOnUse">
<stop stop-color="#6366F1"/>
<stop offset="1" stop-color="#8B5CF6"/>
</linearGradient>
<linearGradient id="paint6_linear_1_277" x1="37.3714" y1="36.8572" x2="37.3714" y2="311.143" gradientUnits="userSpaceOnUse">
<stop stop-color="#6366F1"/>
<stop offset="1" stop-color="#8B5CF6"/>
</linearGradient>
<linearGradient id="paint7_linear_1_277" x1="104" y1="24" x2="124" y2="24" gradientUnits="userSpaceOnUse">
<stop stop-color="#615FFF"/>
<stop offset="1" stop-color="#AD46FF"/>
</linearGradient>
<clipPath id="clip0_1_277">
<rect width="48" height="48" fill="white"/>
</clipPath>
</defs>
</svg>
